<svg width="28" height="28" viewBox="0 0 28 28" fill="none" xmlns="http://www.w3.org/2000/svg">
<g id="Vector">
<path d="M2.16451 19.6118C3.98092 23.8146 7.82023 26.9101 12.4226 27.4868C18.0652 28.1939 23.3145 25.122 25.6763 20.029C26.9175 17.3525 27.2358 14.4488 26.5871 11.5629C26.0934 9.36572 25.5558 7.57901 24.2316 5.72647C22.9067 3.8728 20.7245 2.13245 18.6024 1.29084C13.2424 -0.834892 7.17311 0.916149 3.78728 5.53728C2.41453 7.41082 1.8112 9.22676 1.33359 11.4836C0.754297 14.2204 1.05955 17.0552 2.16451 19.6118ZM14.5904 0.932608C20.1418 1.15992 24.8686 5.21661 25.8562 10.6857C26.9605 16.8014 23.5996 22.5768 17.7037 24.4861C12.4407 26.1905 7.11616 24.3169 3.99539 19.833C0.478649 14.7802 1.42724 7.84804 6.06408 3.85993C8.50226 1.76277 11.3604 0.80027 14.5904 0.932608Z" fill="#FFFCE3"/>
<path d="M14.1174 4.35693C8.04707 4.04647 3.66838 9.86082 5.69422 15.6179C7.9398 21.9994 16.5716 23.1369 20.4857 17.6384C24.3156 12.258 20.6726 4.69227 14.1174 4.35693ZM14.3444 5.66234C16.4538 5.78853 18.4494 7.10576 19.5625 8.86314C22.1079 12.8817 19.8988 18.3403 15.2333 19.3293C9.79688 20.4816 5.24234 15.1443 7.35066 9.97093C8.50623 7.13536 11.2966 5.48005 14.3444 5.66234Z" fill="#FFFCE3"/>
<path d="M14.4201 1.85963C9.9032 1.63232 5.79789 4.14041 3.86211 8.18508C3.24951 9.46504 2.75734 11.2633 2.81892 12.685C2.82308 12.7796 2.76585 12.8588 2.86499 12.9606C2.93461 13.0321 3.24876 13.0646 3.2831 12.9412C3.70291 7.70974 7.71882 2.73861 13.1583 2.36505C19.0509 1.96047 23.8988 6.86766 24.198 12.6089C24.2031 12.706 24.1767 13.0119 24.2066 13.0733C24.2218 13.1046 24.2511 13.108 24.2815 13.1119C24.3794 13.1244 24.781 13.1263 24.8413 13.0645C24.8991 13.0051 24.8816 12.7231 24.8781 12.6287C24.7088 8.09673 22.0044 4.18628 17.7557 2.59161C16.721 2.2032 15.5275 1.91535 14.4201 1.85963Z" fill="#FFFCE3"/>
<path d="M4.88922 17.5302C5.82779 19.455 7.47666 21.0378 9.43382 21.9431C14.8111 24.4304 21.1939 21.5648 23.2517 16.1286C23.4848 15.5129 23.82 14.4994 23.8733 13.8556C23.8974 13.5647 23.8545 13.6328 23.6391 13.6403C23.5456 13.6436 23.287 13.6243 23.2343 13.7086C23.1796 13.9813 23.1634 14.2594 23.113 14.5331C22.0219 20.4537 15.7469 23.9067 10.1656 21.4574C7.40155 20.2444 5.15786 17.6235 4.64109 14.6089C4.5954 14.3419 4.59824 13.9939 4.53534 13.7498C4.48568 13.5573 4.33206 13.5868 4.15308 13.603C3.8991 13.626 3.92643 13.7261 3.93438 13.9535C3.97382 15.0812 4.39581 16.5184 4.88922 17.5302Z" fill="#FFFCE3"/>
<path d="M10.9353 3.91631C11.0505 3.83723 11.7459 3.73668 11.788 3.68153C11.836 3.61862 11.7357 3.36388 11.73 3.26332C11.7178 3.04661 11.8367 2.91938 11.5176 2.99468C11.3741 3.02854 11.1162 3.10478 10.9815 3.15861C10.9548 3.1693 10.9124 3.18216 10.8958 3.20534C10.8366 3.28773 10.9292 3.78672 10.9353 3.91631Z" fill="#FFFCE3"/>
<path d="M15.6693 2.89895C15.6478 2.92193 15.5356 3.45573 15.5336 3.51249C15.5311 3.5787 15.5393 3.5893 15.5992 3.61295C15.7727 3.68143 16.0281 3.68796 16.2092 3.76089C16.3528 3.7713 16.3679 3.46538 16.418 3.35451C16.4553 3.27222 16.5797 3.17384 16.5175 3.07764C16.4868 3.03005 16.091 2.95419 16.009 2.9383C15.9452 2.926 15.7054 2.86016 15.6693 2.89895Z" fill="#FFFCE3"/>
<path d="M14.3073 3.45762C14.3251 3.47493 14.3629 3.47834 14.3876 3.48108L15.0041 3.49177C15.0404 3.35139 15.0447 3.20382 15.0878 3.06477C15.1108 2.9907 15.1823 2.88561 15.189 2.82346C15.2013 2.70815 15.0316 2.75176 14.9578 2.74097C14.8376 2.72347 14.5487 2.63569 14.4547 2.71553C14.3254 2.82526 14.331 3.23712 14.2872 3.39708C14.2873 3.41628 14.2938 3.44438 14.3073 3.45762Z" fill="#FFFCE3"/>
<path d="M19.1887 21.8546C19.0999 21.8418 19.0339 21.9296 19.0317 22.0129C19.0288 22.1178 19.1169 22.6422 19.1556 22.7403C19.2962 23.0969 19.9036 22.9738 19.7991 22.5697C19.7758 22.4791 19.3611 21.957 19.2771 21.9C19.2555 21.8852 19.2121 21.858 19.1887 21.8546Z" fill="#FFFCE3"/>
<path d="M8.38638 21.9119C8.29226 21.8842 8.0763 22.0421 8.00251 22.1066C7.81134 22.2738 7.47874 22.7237 7.84643 22.8874C8.24401 23.0645 8.43812 22.4517 8.45647 22.1633C8.46139 22.0862 8.47832 21.9389 8.38638 21.9119Z" fill="#FFFCE3"/>
<path d="M22.7071 18.2236C22.5501 18.3821 22.9161 18.7449 23.0344 18.8428C23.2321 19.0062 23.5225 19.1653 23.6387 18.8239C23.7495 18.4982 23.3969 18.392 23.1524 18.3085C23.0677 18.2796 22.8804 18.2139 22.8017 18.2035C22.7723 18.1995 22.7282 18.2023 22.7071 18.2236Z" fill="#FFFCE3"/>
<path d="M17.183 3.27676C17.0352 3.24232 17.0233 3.48676 16.9846 3.59961C16.9495 3.70234 16.862 3.78 16.8986 3.90297C16.9306 4.01062 17.3521 4.14958 17.4487 4.12054C17.5382 4.09358 17.5874 3.90297 17.6289 3.82768C17.6756 3.74301 17.793 3.65362 17.7614 3.55108C17.7366 3.47058 17.2756 3.34193 17.183 3.27676Z" fill="#FFFCE3"/>
<path d="M19.908 21.4768C19.7974 21.4519 19.7564 21.5015 19.7744 21.6101C19.798 21.7518 20.0329 22.245 20.1324 22.35C20.291 22.5174 20.6205 22.424 20.6414 22.1834C20.6721 21.8294 20.3166 21.7838 20.097 21.6287C20.039 21.5876 19.9688 21.4905 19.908 21.4768Z" fill="#FFFCE3"/>
<path d="M6.097 20.0387C5.86203 19.9887 5.33835 20.3741 5.32501 20.6209C5.31347 20.8328 5.4897 20.9221 5.68088 20.8821C5.87906 20.8408 6.25554 20.3253 6.19784 20.1293C6.18611 20.0896 6.13749 20.0473 6.097 20.0387Z" fill="#FFFCE3"/>
<path d="M14.4778 23.351C14.4327 23.3934 14.2878 24.0218 14.2926 24.1035C14.3123 24.4356 14.7864 24.5328 14.8809 24.1794C14.9489 23.9253 14.8238 23.6249 14.6741 23.4192C14.6291 23.3575 14.5601 23.2736 14.4778 23.351Z" fill="#FFFCE3"/>
<path d="M15.5188 23.2546C15.4217 23.226 15.351 23.314 15.3326 23.4018C15.3143 23.4895 15.2941 23.94 15.3053 24.0366C15.3359 24.299 15.6695 24.4118 15.8349 24.1877C15.9588 24.0199 15.8947 23.8984 15.8195 23.7305C15.7799 23.6419 15.5955 23.2771 15.5188 23.2546Z" fill="#FFFCE3"/>
<path d="M23.5398 16.7101C23.407 16.8641 23.8356 17.2558 23.953 17.3375C24.0939 17.4356 24.2686 17.5173 24.4026 17.3554C24.5845 17.1355 24.3651 16.8828 24.1504 16.7996C24.0559 16.763 23.6011 16.6391 23.5398 16.7101Z" fill="#FFFCE3"/>
<path d="M17.4862 22.6871C17.4196 22.673 17.3689 22.7014 17.3503 22.7675C17.3962 22.9916 17.3516 23.2778 17.4184 23.4938C17.5314 23.8594 18.1169 23.7943 17.9677 23.3039C17.9258 23.1661 17.6206 22.7156 17.4862 22.6871Z" fill="#FFFCE3"/>
<path d="M4.18118 10.2918L4.01072 11.0107C4.23945 10.9851 4.41274 11.1487 4.60591 11.2376L4.76482 10.5316C4.74969 10.4858 4.26262 10.3246 4.18118 10.2918Z" fill="#FFFCE3"/>
<path d="M19.3777 4.46941C19.3393 4.4591 19.2998 4.45607 19.2685 4.48369C19.2525 4.49788 19.0709 4.82253 19.0565 4.85791C18.9776 5.05126 19.2841 5.15162 19.4165 5.22541C19.468 5.25407 19.5535 5.34573 19.6055 5.33258C19.6575 5.31943 19.8803 4.98542 19.9371 4.92819C19.9368 4.87701 19.4582 4.49097 19.3777 4.46941Z" fill="#FFFCE3"/>
<path d="M4.33764 17.6745C4.19187 17.6429 3.73951 17.6912 3.61484 17.7756C3.43113 17.9 3.37741 18.2262 3.62732 18.3092C3.86324 18.3875 4.13331 18.199 4.2752 18.0198C4.33215 17.9478 4.49968 17.7097 4.33764 17.6745Z" fill="#FFFCE3"/>
<path d="M6.55134 6.17031C6.52419 6.16255 6.49978 6.16511 6.47859 6.18526C6.41928 6.30341 6.02568 6.68831 6.01631 6.78432C6.01291 6.81895 6.01735 6.83058 6.03428 6.85924C6.05245 6.89008 6.34645 7.16488 6.36887 7.16895C6.39337 7.17339 6.40869 7.14728 6.42354 7.13291C6.49212 7.06631 6.61689 6.90191 6.67762 6.81951C6.77553 6.6867 6.85745 6.62985 6.78054 6.45334C6.75897 6.40377 6.59523 6.1827 6.55134 6.17031Z" fill="#FFFCE3"/>
<path d="M6.81592 20.7006C6.74923 20.6815 6.6219 20.7612 6.55919 20.7958C6.42449 20.8698 6.14032 21.0477 6.11535 21.2032C6.08026 21.4221 6.20228 21.6116 6.43981 21.5853C6.60261 21.5673 6.71461 21.3556 6.77619 21.2208C6.82245 21.1196 6.97701 20.7468 6.81592 20.7006Z" fill="#FFFCE3"/>
<path d="M18.2994 3.80592C18.2673 3.80034 18.2542 3.79731 18.2282 3.82143C18.19 3.85691 18.0201 4.20974 18.0125 4.26782C17.9913 4.43128 18.0414 4.47111 18.1744 4.5378C18.2554 4.57847 18.4739 4.67713 18.5416 4.6078C18.5945 4.48672 18.6925 4.38418 18.7566 4.27416C18.8207 4.16415 18.86 4.12082 18.7361 4.03285C18.696 4.00447 18.3308 3.81131 18.2994 3.80592Z" fill="#FFFCE3"/>
<path d="M11.8106 23.3302C11.7434 23.3108 11.6842 23.3529 11.6455 23.4036C11.597 23.4675 11.3883 23.8597 11.3744 23.9271C11.28 24.3836 11.9261 24.4618 11.9895 24.0126C12.0053 23.9007 11.929 23.4559 11.8624 23.3739C11.8491 23.3576 11.8309 23.3361 11.8106 23.3302Z" fill="#FFFCE3"/>
<path d="M18.4133 22.3841C18.2989 22.3664 18.3007 22.5312 18.2947 22.6178C18.2814 22.8086 18.281 23.2276 18.4836 23.3178C18.8157 23.4655 19.1083 23.1379 18.8529 22.816C18.7896 22.7363 18.5583 22.4845 18.4842 22.4281C18.4626 22.4117 18.4418 22.3886 18.4133 22.3841Z" fill="#FFFCE3"/>
<path d="M10.9407 23.1403C10.9163 23.1331 10.901 23.1369 10.8788 23.1472C10.8548 23.1583 10.5821 23.5162 10.556 23.5628C10.3648 23.904 10.6952 24.3114 11.0012 24.0268C11.1183 23.918 11.1394 23.7346 11.1241 23.5826C11.116 23.5015 11.0149 23.1621 10.9407 23.1403Z" fill="#FFFCE3"/>
<path d="M7.42123 21.3438C7.13527 21.2854 6.56837 22.02 6.96765 22.2149C7.24292 22.3492 7.41877 22.0129 7.48262 21.7948C7.51847 21.6723 7.60039 21.3804 7.42123 21.3438Z" fill="#FFFCE3"/>
<path d="M5.55005 19.3189C5.4582 19.2883 5.02108 19.4433 4.92469 19.5017C4.49712 19.7609 4.82631 20.2965 5.23108 19.9973C5.37212 19.8931 5.58193 19.6005 5.5824 19.4206C5.5825 19.3869 5.59073 19.3324 5.55005 19.3189Z" fill="#FFFCE3"/>
<path d="M9.19951 22.3466C9.10151 22.3265 9.04599 22.4044 8.98592 22.4657C8.90438 22.549 8.64188 22.851 8.617 22.9481C8.5312 23.2828 8.92084 23.4535 9.14607 23.1366C9.27878 22.9499 9.26564 22.8132 9.26942 22.5979C9.27084 22.518 9.32911 22.3733 9.19951 22.3466Z" fill="#FFFCE3"/>
<path d="M16.5974 23.0469C16.3999 22.9869 16.4587 23.2066 16.4603 23.2978C16.4639 23.5043 16.4299 23.7555 16.5646 23.9313C16.7438 24.165 17.1483 24.0015 17.0707 23.6899C17.0472 23.5954 16.6739 23.0702 16.5974 23.0469Z" fill="#FFFCE3"/>
<path d="M3.31507 15.8971C3.1028 15.873 2.85553 15.8858 2.75866 16.106C2.65972 16.3308 2.8788 16.5346 3.10384 16.4889C3.19352 16.4707 3.68711 16.1983 3.72807 16.1294C3.81831 15.9777 3.41259 15.9082 3.31507 15.8971Z" fill="#FFFCE3"/>
<path d="M20.683 20.8715C20.6112 20.8533 20.5786 20.8816 20.5586 20.9463C20.4985 21.1412 20.7175 21.5259 20.8771 21.6431C21.1572 21.8487 21.5089 21.4893 21.3 21.2202C21.2137 21.1091 20.9617 21.0427 20.8292 20.9722C20.7831 20.9477 20.7224 20.8816 20.683 20.8715Z" fill="#FFFCE3"/>
<path d="M4.73484 9.23697C4.67089 9.22609 4.61423 9.21692 4.56958 9.27084C4.52105 9.32949 4.35892 9.73728 4.36999 9.80842C4.38399 9.89819 4.54688 9.90585 4.61744 9.94066C4.67004 9.96658 4.82432 10.1024 4.8684 10.0993C4.96026 10.0927 4.98305 9.84323 5.00822 9.76623C5.05968 9.60845 5.20024 9.4938 5.01229 9.35664C4.96499 9.32211 4.79122 9.24653 4.73484 9.23697Z" fill="#FFFCE3"/>
<path d="M10.3366 3.44542C10.2629 3.41997 9.8262 3.60708 9.79499 3.67472C9.76869 3.73166 9.78373 3.80753 9.78137 3.86873C9.82006 3.93722 9.80681 4.3033 9.83651 4.32411C9.90169 4.36961 10.2255 4.20104 10.2907 4.15147C10.3595 4.09916 10.3882 4.04439 10.4004 3.95859C10.4128 3.87109 10.3914 3.57539 10.3667 3.4913C10.3605 3.46992 10.3635 3.45469 10.3366 3.44542Z" fill="#FFFCE3"/>
<path d="M13.7026 23.4633C13.6381 23.4491 13.6042 23.4546 13.5675 23.5094C13.5279 23.5685 13.3834 23.9457 13.3757 24.0175C13.3603 24.1591 13.3795 24.3129 13.5172 24.387C13.8239 24.5518 13.9907 24.1871 13.9572 23.9278C13.9442 23.8271 13.8033 23.4858 13.7026 23.4633Z" fill="#FFFCE3"/>
<path d="M23.7676 12.4337C23.6719 12.4122 23.3654 12.4258 23.3074 12.5141C23.2459 12.6077 23.2566 13.0151 23.3468 13.0815C23.4268 13.1404 23.8585 13.1644 23.9115 13.0804C23.954 13.0134 23.9268 12.7042 23.9091 12.6139C23.895 12.5417 23.845 12.451 23.7676 12.4337Z" fill="#FFFCE3"/>
<path d="M10.0222 22.8401C9.90736 22.7302 9.69103 23.0525 9.63663 23.1353C9.56957 23.2373 9.44688 23.4381 9.46315 23.5583C9.48812 23.7427 9.66019 23.8306 9.83245 23.7662C10.0752 23.6755 10.1871 22.998 10.0222 22.8401Z" fill="#FFFCE3"/>
<path d="M7.98397 5.54324C8.15027 5.41857 8.34003 5.30695 8.48731 5.166L8.36197 4.5028C8.33199 4.47291 7.8365 4.86424 7.81664 4.93264C7.78949 5.02619 7.97319 5.41838 7.98397 5.54324Z" fill="#FFFCE3"/>
<path d="M12.4364 24.2663C12.5915 24.4118 12.8774 24.3544 12.9316 24.141C12.9661 24.0052 12.9247 23.8365 12.8967 23.7018C12.8625 23.5368 12.8307 23.2482 12.6282 23.4593C12.469 23.6252 12.2298 24.0723 12.4364 24.2663Z" fill="#FFFCE3"/>
<path d="M21.3451 20.2652C21.1966 20.2499 21.2566 20.4789 21.2958 20.5624C21.4 20.7849 21.8601 21.2782 22.0753 20.9306C22.2226 20.6926 22.0136 20.5762 21.8329 20.4793C21.7583 20.4394 21.4055 20.2714 21.3451 20.2652Z" fill="#FFFCE3"/>
<path d="M22.367 18.8847C22.3014 18.8716 22.2473 18.892 22.2471 18.9658C22.2468 19.0806 22.5616 19.4933 22.6644 19.572C22.9646 19.8018 23.2995 19.4265 23.1004 19.1928C23.0255 19.1048 22.7252 19.0336 22.6034 18.9898C22.537 18.9659 22.4184 18.8949 22.367 18.8847Z" fill="#FFFCE3"/>
<path d="M5.13034 8.11953C5.11331 8.12965 4.95174 8.42109 4.93453 8.46309C4.85696 8.65238 4.83766 8.73089 5.01465 8.86247C5.0786 8.90996 5.27299 9.03378 5.33315 8.95612C5.38149 8.89369 5.43919 8.73307 5.4828 8.65181C5.54107 8.54331 5.66707 8.47899 5.55062 8.34532C5.50559 8.29358 5.18378 8.08784 5.13034 8.11953Z" fill="#FFFCE3"/>
<path d="M3.74604 12.3731C3.75484 12.4924 3.62941 12.9319 3.68758 13.0085C3.70906 13.0367 3.77688 13.0502 3.81226 13.0541L4.44339 13.0703C4.58878 12.5802 4.37481 12.6788 4.0547 12.5466L3.74604 12.3731Z" fill="#FFFCE3"/>
<path d="M23.5023 11.2045C23.4079 11.1872 23.1831 11.2197 23.1602 11.3274C23.1503 11.3734 23.2187 11.8602 23.2372 11.9235C23.2775 12.0617 23.4105 11.969 23.5065 11.9566C23.6772 11.9345 23.8191 12.0097 23.7764 11.7436C23.7646 11.6703 23.7071 11.4554 23.6821 11.384C23.6525 11.2992 23.5956 11.2217 23.5023 11.2045Z" fill="#FFFCE3"/>
<path d="M7.39701 5.27838C7.37024 5.2588 7.13792 5.47059 7.10349 5.50484C7.03888 5.56907 6.94409 5.65278 6.9283 5.74653C6.90266 5.89826 7.11749 6.13957 7.17964 6.2807C7.23876 6.18346 7.57107 5.95615 7.58639 5.87357C7.61203 5.73555 7.41915 5.4302 7.39701 5.27838Z" fill="#FFFCE3"/>
<path d="M3.63622 16.8435C3.444 16.8253 3.21007 16.8296 3.08388 16.9988C3.00537 17.1041 3.01 17.1782 3.07915 17.2871C3.26257 17.5757 3.55922 17.3826 3.75484 17.2156C4.01441 16.994 3.99615 16.8777 3.63622 16.8435Z" fill="#FFFCE3"/>
<path d="M21.7613 19.6613C21.7369 19.6857 21.7291 19.7566 21.7474 19.7888L22.2495 20.3654C22.5023 20.4773 22.7404 20.2531 22.6251 19.9896C22.5611 19.843 22.2638 19.8042 22.1112 19.7469C22.0244 19.7144 21.8444 19.5781 21.7613 19.6613Z" fill="#FFFCE3"/>
<path d="M23.9551 15.9922C23.8718 15.9873 23.7663 15.9812 23.8033 16.1054C23.8133 16.139 24.23 16.5545 24.2856 16.5888C24.638 16.806 24.8502 16.3607 24.6228 16.1569C24.5144 16.0598 24.108 16.001 23.9551 15.9922Z" fill="#FFFCE3"/>
<path d="M23.2387 9.82128C23.1405 9.78912 22.9068 9.97699 22.8926 10.0756C22.8882 10.1068 22.8921 10.1336 22.8964 10.1642C22.9097 10.2569 22.997 10.5869 23.0339 10.6701C23.0504 10.7074 23.0663 10.7392 23.1105 10.7461C23.1656 10.7548 23.4299 10.6864 23.4609 10.6433C23.5148 10.5683 23.402 10.2449 23.3699 10.1449C23.3511 10.0862 23.2807 9.835 23.2387 9.82128Z" fill="#FFFCE3"/>
<path d="M24.7308 14.3841C24.6534 14.378 24.4775 14.3609 24.4169 14.3993C24.3574 14.4369 24.3526 14.5399 24.3855 14.5971C24.4214 14.6594 24.8289 14.9151 24.911 14.9416C25.2374 15.047 25.4184 14.6455 25.1496 14.4761C25.0614 14.4206 24.8397 14.3927 24.7308 14.3841Z" fill="#FFFCE3"/>
<path d="M4.84892 18.5254C4.60903 18.4549 3.91073 18.7166 4.14315 19.0799C4.35447 19.4102 4.95884 18.9005 4.89962 18.5885C4.89395 18.5585 4.87966 18.5344 4.84892 18.5254Z" fill="#FFFCE3"/>
<path d="M24.4661 15.1786C23.9374 15.1325 24.2608 15.5288 24.5063 15.6681C24.6558 15.7527 24.9916 15.8873 25.0443 15.6321C25.1098 15.3147 24.7115 15.1999 24.4661 15.1786Z" fill="#FFFCE3"/>
<path d="M20.4202 5.31915C20.3473 5.30486 20.2618 5.46927 20.2239 5.51449C20.135 5.62043 20.0111 5.64503 20.1199 5.78957C20.3477 6.09236 20.7172 6.23095 20.8779 5.78749L20.4202 5.31915Z" fill="#FFFCE3"/>
<path d="M21.3268 6.30255C21.2369 6.27815 21.0773 6.49108 21.0024 6.53885C20.994 6.58085 21.3642 7.02876 21.4177 7.10226C21.4864 7.17746 21.8153 7.04786 21.8306 6.98685C21.8345 6.97124 21.832 6.95753 21.8232 6.94419C21.743 6.8583 21.3964 6.32138 21.3268 6.30255Z" fill="#FFFCE3"/>
<path d="M8.91176 4.86122C8.9565 4.89934 9.2557 4.69397 9.29742 4.63381C9.42512 4.44982 9.33015 4.37869 9.30962 4.20785C9.2978 4.10881 9.31511 3.99776 9.30801 3.8973C9.28872 3.87592 8.83258 4.14788 8.81934 4.1948L8.91176 4.86122Z" fill="#FFFCE3"/>
<path d="M2.89857 14.138C2.74485 14.1235 2.50818 14.1507 2.44243 14.3141C2.24445 14.8059 3.35035 14.6851 3.26929 14.3164C3.24072 14.1863 3.01019 14.1485 2.89857 14.138Z" fill="#FFFCE3"/>
<path d="M24.5798 13.6078C24.4427 13.5931 24.4296 13.6565 24.4676 13.7769C24.5433 14.017 24.9325 14.2632 25.1754 14.1361C25.3248 14.058 25.3103 13.8423 25.1799 13.7458C25.0494 13.6493 24.7508 13.626 24.5798 13.6078Z" fill="#FFFCE3"/>
<path d="M4.50261 12.2406C4.51159 12.1198 4.58301 11.9018 4.52257 11.795C4.47177 11.7053 4.29365 11.7059 4.2018 11.6617C4.11392 11.6195 4.01157 11.4698 3.90534 11.5393C3.82314 11.5931 3.81226 11.8828 3.82976 11.977C3.9026 12.0047 3.97988 12.0103 4.05385 12.0367C4.21324 12.0935 4.33868 12.2206 4.50261 12.2406Z" fill="#FFFCE3"/>
<path d="M2.674 15.1226C2.58045 15.2191 2.60362 15.4037 2.7177 15.4727C2.89024 15.5773 3.21745 15.495 3.36776 15.3718C3.46973 15.2883 3.55203 15.2072 3.39935 15.1317C3.22151 15.0439 2.82762 14.9642 2.674 15.1226Z" fill="#FFFCE3"/>
<path d="M22.4247 8.78377C22.3475 8.87505 22.4726 8.93569 22.4934 8.98213C22.5431 9.09309 22.527 9.13888 22.6067 9.2662C22.6245 9.29458 22.6161 9.32987 22.6548 9.36553C22.7427 9.44641 23.046 9.41878 23.0628 9.29761C23.0756 9.20557 22.8254 8.75265 22.7787 8.63535C22.7417 8.61161 22.4559 8.74688 22.4247 8.78377Z" fill="#FFFCE3"/>
<path d="M23.2933 17.6375C23.1396 17.6212 23.161 17.6781 23.21 17.7967C23.3002 18.0149 23.6899 18.2986 23.9201 18.1593C24.0852 18.0595 24.0073 17.8684 23.8744 17.7756C23.7489 17.6879 23.4509 17.6545 23.2933 17.6375Z" fill="#FFFCE3"/>
<path d="M22.1782 7.51355C22.1342 7.50182 22.0667 7.5407 22.0241 7.56057C21.9814 7.58043 21.8159 7.67304 21.8125 7.70974C21.8061 7.78012 22.072 8.18905 22.1436 8.23077C22.21 8.26946 22.2674 8.23607 22.3314 8.20845C22.3884 8.18385 22.5177 8.11508 22.5139 8.05161C22.4684 7.97054 22.2335 7.52831 22.1782 7.51355Z" fill="#FFFCE3"/>
<path d="M5.41081 7.68089C5.60274 7.69224 5.68409 7.89392 5.83441 7.98293L6.10883 7.57977C6.1041 7.55205 5.71474 7.24273 5.6875 7.24746C5.63982 7.29485 5.38631 7.65261 5.41081 7.68089Z" fill="#FFFCE3"/>
<path d="M9.33318 15.7811C9.30291 15.7787 9.25409 15.8407 9.233 15.8642C9.19639 15.9049 9.0107 16.1421 8.99566 16.1765C8.98857 16.1926 8.98327 16.1993 8.98857 16.2191C8.99434 16.2406 9.23385 16.5261 9.2698 16.5641C9.33999 16.6382 9.50534 16.8009 9.58253 16.8566C9.65972 16.9123 9.66615 16.896 9.72101 16.8251C9.74977 16.7879 9.92562 16.521 9.93669 16.492C9.94624 16.4666 9.9593 16.4448 9.94861 16.4164C9.83623 16.3409 9.41869 15.7881 9.33318 15.7811Z" fill="#FFFCE3"/>
<path d="M19.4336 12.1137C19.2134 12.0999 19.1094 12.0989 19.0895 12.3449C19.0809 12.4507 19.1108 12.5366 19.1095 12.6282C19.1081 12.7382 19.02 12.8419 19.1258 12.9322C19.205 12.9998 19.5091 13.0037 19.6201 13.0079C19.6577 12.9816 19.6711 12.2967 19.6757 12.1931C19.6616 12.1174 19.505 12.1181 19.4336 12.1137Z" fill="#FFFCE3"/>
<path d="M8.22973 9.72423L8.778 9.73388C8.80704 9.72045 9.11447 9.26147 9.14105 9.20727C9.16281 9.16309 9.18835 9.14295 9.15505 9.09309C9.11722 9.03653 8.80222 8.88773 8.7324 8.8165C8.68123 8.93881 8.15292 9.64685 8.22973 9.72423Z" fill="#FFFCE3"/>
<path d="M18.2811 8.53574C18.2498 8.52647 18.23 8.53045 18.2007 8.54265C18.1817 8.5505 17.9346 8.73297 17.9177 8.7517C17.8679 8.80704 17.8665 8.85519 17.8959 8.92197C17.9093 8.95234 18.2599 9.43335 18.2867 9.45795C18.3136 9.48254 18.34 9.50146 18.3788 9.49749C18.4039 9.49484 18.7253 9.29647 18.7557 9.26781C18.7688 9.25551 18.7906 9.25154 18.7846 9.22619C18.7094 9.13405 18.3477 8.55542 18.2811 8.53574Z" fill="#FFFCE3"/>
<path d="M14.7568 18.2473C14.7787 18.3181 15.0075 18.2461 15.0635 18.2325C15.1381 18.2145 15.5981 18.0818 15.6181 18.049C15.6579 17.9844 15.4673 17.5992 15.5134 17.4812L15.2252 17.5995C15.0959 17.6485 14.9272 17.6291 14.8221 17.7262C14.8073 17.7399 14.7568 17.8001 14.7568 17.8122C14.7568 17.9 14.739 18.19 14.7568 18.2473Z" fill="#FFFCE3"/>
<path d="M12.2595 18.2566C12.2878 18.2881 13.0257 18.3881 13.0977 18.3666C13.18 18.342 13.2186 17.9665 13.1969 17.8963C13.1698 17.8086 13.074 17.7921 12.998 17.7737C12.8191 17.7303 12.5495 17.671 12.4329 17.8532L12.2595 18.2566Z" fill="#FFFCE3"/>
<path d="M17.2603 7.56946L17.235 7.57589C17.1935 7.67522 16.9077 7.86393 16.9347 7.97073L17.4997 8.46669C17.5261 8.48145 17.5523 8.4788 17.5803 8.4717C17.6428 8.45581 17.9288 8.16805 17.9142 8.11063C17.9029 8.06608 17.344 7.63113 17.2603 7.56946Z" fill="#FFFCE3"/>
<path d="M8.37843 13.8892C8.29576 13.8434 7.82988 14.0237 7.8154 14.0694L8.10798 14.7944C8.19132 14.7386 8.5593 14.5718 8.58181 14.4926C8.59855 14.4335 8.3807 13.9938 8.37843 13.8892Z" fill="#FFFCE3"/>
<path d="M14.3216 17.7932C14.3051 17.7373 14.1544 17.7991 14.1037 17.8023C13.8722 17.8171 13.7088 17.7232 13.6126 17.9924C13.5979 18.0336 13.5247 18.359 13.5293 18.3782C13.5404 18.4245 13.8007 18.4108 13.8589 18.4089C13.9466 18.4059 14.0697 18.3954 14.1584 18.3867C14.1909 18.3835 14.3216 18.3663 14.3216 18.3419C14.2955 18.2027 14.3566 17.9117 14.3216 17.7932Z" fill="#FFFCE3"/>
<path d="M17.5356 16.2348C17.4843 16.2051 17.3372 16.3928 17.2921 16.4314C17.235 16.4802 16.9846 16.654 16.9727 16.6999C16.9891 16.7668 17.1782 17.2135 17.2065 17.2156C17.2841 17.1378 17.7621 16.7929 17.7805 16.7296C17.8102 16.6276 17.5678 16.3511 17.5356 16.2348Z" fill="#FFFCE3"/>
<path d="M11.9725 17.5598C11.8145 17.4898 11.6034 17.3781 11.426 17.4327C11.3284 17.4629 11.2091 17.6796 11.1802 17.7734C11.151 17.8684 11.1513 17.8774 11.238 17.9255C11.3248 17.9735 11.6519 18.1048 11.7521 18.1303C11.802 18.143 11.8428 18.1602 11.8822 18.1159C11.9154 18.0786 11.9945 17.5952 11.9725 17.5598Z" fill="#FFFCE3"/>
<path d="M7.83631 12.6813C7.58942 12.6754 7.56567 12.7114 7.58876 12.9667C7.59396 13.0245 7.67389 13.4507 7.69035 13.4705C7.70217 13.4846 7.70974 13.4885 7.72828 13.4901C7.75023 13.4919 8.1182 13.3773 8.14857 13.3607C8.28648 13.2853 8.20258 13.2131 8.1934 13.1188C8.18205 13.0016 8.21838 12.7325 8.06485 12.6987C8.01935 12.6885 7.89004 12.6826 7.83631 12.6813Z" fill="#FFFCE3"/>
<path d="M9.69197 7.81559C9.67315 7.81096 9.66511 7.81673 9.64969 7.82269C9.59454 7.84397 9.29553 8.14677 9.24161 8.21053C9.22543 8.22963 9.14238 8.32981 9.1403 8.33766C9.11684 8.42696 9.43562 8.62201 9.49162 8.70072C9.55746 8.71803 9.7388 8.46915 9.79073 8.41911C9.92609 8.28847 10.0635 8.32054 9.92903 8.09124C9.90784 8.05511 9.71316 7.8208 9.69197 7.81559Z" fill="#FFFCE3"/>
<path d="M8.17969 11.3347C8.16285 11.3291 7.86592 11.3488 7.82515 11.3536C7.77246 11.3599 7.71343 11.3729 7.68061 11.4172C7.62253 11.4956 7.56624 11.9886 7.65176 12.0523C7.71608 12.1002 8.08103 12.1419 8.13324 12.0589C8.17638 11.9903 8.22718 11.4675 8.21081 11.3796C8.20655 11.3568 8.20457 11.343 8.17969 11.3347Z" fill="#FFFCE3"/>
<path d="M10.8546 17.0506C10.8439 17.0393 10.6126 16.9101 10.5829 16.897C10.5433 16.8794 10.5071 16.8587 10.4614 16.8647C10.3803 16.8752 10.1036 17.114 10.0871 17.1921C10.0706 17.2702 10.1064 17.2949 10.1608 17.3378C10.2024 17.3706 10.6382 17.634 10.6698 17.6429C10.7476 17.6649 10.751 17.6451 10.7796 17.581C10.8212 17.4876 10.9263 17.1246 10.8546 17.0506Z" fill="#FFFCE3"/>
<path d="M19.0935 13.4369C19.0396 13.4235 19.017 13.4269 18.9901 13.4754C18.9242 13.5946 18.916 13.8713 18.8456 14.0076C18.8546 14.0465 18.9959 14.0751 19.0396 14.097C19.2091 14.1818 19.3098 14.3165 19.4331 14.0696C19.4884 13.9589 19.5538 13.691 19.5006 13.5791C19.4528 13.4787 19.2746 13.5019 19.1823 13.4812C19.1474 13.4735 19.1199 13.4434 19.0935 13.4369Z" fill="#FFFCE3"/>
<path d="M19.0751 11.6112C19.1079 11.6419 19.3777 11.6232 19.4393 11.6164C19.6161 11.5969 19.6293 11.522 19.5943 11.3664C19.5776 11.2921 19.5006 10.9799 19.4681 10.9441C19.4047 10.8741 19.1767 10.915 19.0887 10.9441C19.0089 10.9706 18.9731 11.0041 18.9751 11.0949C18.9771 11.1857 19.0163 11.4154 19.0337 11.5109C19.0377 11.5337 19.0606 11.5977 19.0751 11.6112Z" fill="#FFFCE3"/>
<path d="M19.0391 9.74627C19.0024 9.73927 18.9413 9.80955 18.9002 9.82857C18.8099 9.87028 18.6366 9.87293 18.6049 9.98881C18.5752 10.097 18.7326 10.4219 18.7993 10.517C18.8209 10.5237 19.1912 10.4488 19.241 10.4342C19.3121 10.4132 19.3288 10.4061 19.3122 10.3249C19.2979 10.2542 19.1505 9.89365 19.1119 9.82469C19.0987 9.80123 19.0639 9.751 19.0391 9.74627Z" fill="#FFFCE3"/>
<path d="M7.77577 10.9161C7.89884 10.8915 8.00989 10.836 8.13409 10.8111C8.20646 10.7966 8.309 10.8193 8.36159 10.7738C8.41419 10.7283 8.46149 10.4624 8.52846 10.3914C8.55428 10.1806 8.42526 10.2378 8.29822 10.2139C8.21762 10.1988 8.07308 10.1319 8.01065 10.177C7.97764 10.2008 7.74796 10.8873 7.77577 10.9161Z" fill="#FFFCE3"/>
<path d="M12.7465 6.43745C12.7231 6.4155 12.6814 6.41304 12.6501 6.41484C12.5729 6.41938 12.1409 6.50622 12.1066 6.55389C12.0625 6.61528 12.1161 6.84212 12.1451 6.91562C12.174 6.98912 12.1919 7.0315 12.2862 7.01845C12.3709 7.00672 12.6186 6.94797 12.6989 6.91912C12.8268 6.87305 12.8389 6.84534 12.8249 6.70865C12.8203 6.66353 12.7726 6.46185 12.7465 6.43745Z" fill="#FFFCE3"/>
<path d="M18.6795 14.5316C18.6508 14.5289 18.6504 14.5423 18.639 14.5621C18.5987 14.6321 18.4827 14.8627 18.4607 14.9322C18.4498 14.9667 18.4392 14.9915 18.4457 15.0301C18.454 15.0801 18.7452 15.3695 18.8106 15.3592C18.9446 15.3381 19.0806 14.9626 19.1245 14.8459C19.117 14.8159 18.7101 14.5346 18.6795 14.5316Z" fill="#FFFCE3"/>
<path d="M16.5419 17.0095C16.4883 16.9918 16.1761 17.1681 16.1283 17.2162C16.0638 17.2812 16.053 17.3599 16.0668 17.4483C16.074 17.4947 16.1776 17.7738 16.207 17.7823C16.2289 17.7885 16.5868 17.6224 16.6243 17.5987C16.699 17.5515 16.7147 17.5098 16.6975 17.4234C16.6855 17.3632 16.6012 17.107 16.5744 17.054C16.5656 17.0367 16.5661 17.0175 16.5419 17.0095Z" fill="#FFFCE3"/>
<path d="M11.5834 6.71943C11.5092 6.70449 11.2482 6.80977 11.1784 6.85527C11.103 6.90436 11.0723 6.94731 11.0906 7.04257C11.0991 7.08655 11.207 7.39058 11.2304 7.39588C11.261 7.40297 11.7429 7.18247 11.8036 7.13896C11.7712 7.02422 11.7177 6.74658 11.5834 6.71943Z" fill="#FFFCE3"/>
<path d="M8.70232 15.7972C8.7832 15.6094 9.01799 15.4498 8.98204 15.225C8.96813 15.138 8.86219 14.9567 8.76031 14.9935C8.73345 15.0032 8.43491 15.1915 8.41211 15.2136C8.35838 15.2655 8.34892 15.3099 8.37067 15.3819C8.38543 15.4308 8.61038 15.7309 8.65654 15.7771C8.67215 15.7928 8.67338 15.8043 8.70232 15.7972Z" fill="#FFFCE3"/>
<path d="M13.2081 6.846L13.7931 6.82159C13.8347 6.68954 13.8914 6.3578 13.707 6.33784C13.3204 6.29603 13.0431 6.40935 13.2081 6.846Z" fill="#FFFCE3"/>
<path d="M18.207 15.4391C18.1602 15.4248 18.0221 15.6138 17.9952 15.6588C17.8937 15.8289 17.8841 15.9521 18.0025 16.1177C18.0243 16.1482 18.162 16.2897 18.1905 16.2899C18.2152 16.29 18.2233 16.275 18.2382 16.261C18.2715 16.2297 18.5218 15.9057 18.5218 15.8821L18.207 15.4391Z" fill="#FFFCE3"/>
<path d="M15.4238 6.60734C15.3416 6.59409 15.2505 6.58322 15.2029 6.66126C15.1594 6.73258 15.1951 6.76919 15.1937 6.83928C15.1927 6.88677 15.1665 6.95166 15.1756 6.98638C15.1855 7.02431 15.3063 7.09857 15.3447 7.12155C15.7304 7.35255 15.7876 7.19543 15.8139 6.80485C15.7969 6.75405 15.4871 6.61755 15.4238 6.60734Z" fill="#FFFCE3"/>
<path d="M16.3884 7.02176C16.3628 7.01797 16.3556 7.02081 16.3354 7.03623C16.2981 7.06461 16.1654 7.42199 16.1777 7.4602C16.2501 7.5232 16.4893 7.68477 16.5782 7.65895C16.6394 7.64116 16.83 7.37138 16.816 7.29778C16.802 7.22419 16.4602 7.03216 16.3884 7.02176Z" fill="#FFFCE3"/>
<path d="M10.7798 7.65838C10.8383 7.5582 10.6187 7.27584 10.5944 7.17018C10.4275 7.24074 10.1666 7.36182 10.2253 7.58705C10.237 7.63236 10.3591 7.85599 10.3999 7.86781C10.4991 7.89657 10.6791 7.68572 10.7798 7.65838Z" fill="#FFFCE3"/>
<path d="M14.5581 6.41351H14.2743C14.2653 6.41351 14.2249 6.46024 14.2268 6.48011C14.2628 6.71546 14.1681 6.88715 14.4816 6.90626C14.6822 6.91846 14.8386 6.89831 14.8087 6.65511C14.7901 6.50366 14.6997 6.44066 14.5581 6.41351Z" fill="#FFFCE3"/>
</g>
</svg>
