<svg width="24" height="24" viewBox="0 0 24 24" fill="none" xmlns="http://www.w3.org/2000/svg">
<g id="Xnix/Line/Call_Ringing">
<path id="Vector" d="M14.0883 5C16.3483 5.81114 18.1392 7.57205 18.9883 9.818M12.9883 7.253C14.8668 7.67723 16.3428 9.12888 16.7983 11M5.74033 8.16795C6.49433 7.37295 6.76133 7.14995 7.08233 7.04695C7.30482 6.98843 7.53822 6.98499 7.76233 7.03695C8.05733 7.12295 8.13433 7.18795 9.10233 8.15095C9.95233 8.99695 10.0363 9.08895 10.1183 9.25095C10.2769 9.54253 10.3024 9.88825 10.1883 10.1999C10.1043 10.4349 9.98033 10.5909 9.46533 11.1089L9.12933 11.4459C9.04093 11.5356 9.01997 11.6719 9.07733 11.7839C9.82321 13.0565 10.8812 14.1179 12.1513 14.8679C12.2978 14.9465 12.4783 14.921 12.5973 14.8049L12.9203 14.4869C13.1199 14.2821 13.3313 14.0891 13.5533 13.9089C13.9015 13.6935 14.3362 13.6727 14.7033 13.8539C14.8823 13.9379 14.9423 13.9929 15.8193 14.8669C16.7193 15.7669 16.7483 15.7959 16.8493 16.0029C17.0379 16.3458 17.036 16.7618 16.8443 17.1029C16.7443 17.2949 16.6883 17.3649 16.1803 17.8839C15.8733 18.1979 15.5803 18.4839 15.5383 18.5259C15.1188 18.8727 14.581 19.043 14.0383 19.0009C13.0455 18.9101 12.0847 18.6029 11.2233 18.1009C9.31416 17.0894 7.68898 15.6155 6.49633 13.8139C6.23552 13.4373 6.00353 13.0415 5.80233 12.6299C5.26624 11.7109 4.98909 10.6638 5.00033 9.59995C5.04065 9.04147 5.3081 8.52391 5.74033 8.16795Z" stroke="#FFFCE3" stroke-width="1.5" stroke-linecap="round" stroke-linejoin="round"/>
</g>
</svg>
