<svg width="26" height="26" viewBox="0 0 26 26" fill="none" xmlns="http://www.w3.org/2000/svg">
<g id="icon">
<path id="Vector" d="M24.76 9.48404C24.76 9.48404 24.52 7.92404 23.8 7.25547C22.92 6.36404 21.88 6.36404 21.4 6.28975C18.04 6.06689 13 6.06689 13 6.06689C13 6.06689 7.96 6.06689 4.6 6.28975C4.12 6.36404 3.08 6.36404 2.2 7.25547C1.48 7.92404 1.24 9.48404 1.24 9.48404C1.24 9.48404 1 11.2669 1 13.0498V14.684C1 16.4669 1.24 18.324 1.24 18.324C1.24 18.324 1.48 19.884 2.2 20.5526C3.08 21.444 4.28 21.444 4.84 21.5183C6.76 21.5926 13 21.6669 13 21.6669C13 21.6669 18.04 21.6669 21.4 21.444C21.88 21.3698 22.92 21.3698 23.8 20.4783C24.52 19.8098 24.76 18.2498 24.76 18.2498C24.76 18.2498 25 16.4669 25 14.684V13.0498C25 11.2669 24.76 9.48404 24.76 9.48404ZM10 17.3336V10.4002L17 13.8669L10 17.3336Z" fill="#FFFCE3"/>
</g>
</svg>
