<svg width="131" height="200" viewBox="0 0 131 200" fill="none" xmlns="http://www.w3.org/2000/svg">
<g id="Vector">
<path d="M55.9992 103.649C55.9774 103.614 55.1211 103.823 54.9992 103.649C50.7906 97.7055 43.7649 93.2707 38.9992 87.6489C41.8673 87.8446 46.2734 84.6141 45.9992 81.6489C45.9078 80.6663 45.0123 80.5098 44.9992 79.6489C53.2815 85.1272 60.0413 92.0359 69.9992 94.6489C79.1171 97.0446 82.6908 94.0185 90.9992 93.6489C92.3136 93.5924 93.3845 94.8315 94.9992 94.6489C97.097 94.4098 96.6661 93.1533 94.9992 92.6489C89.7635 91.075 83.644 94.0576 77.9992 93.6489C68.3547 92.9576 59.2848 87.5576 51.9992 81.6489C51.7468 81.2185 54.4465 74.8359 54.9992 74.6489C67.3856 75.1924 78.6095 76.5489 89.9992 81.6489C95.6875 84.1968 106.877 89.5228 106.999 96.6489C107.099 102.51 104.426 111.249 103.999 117.649C103.142 130.514 107.815 141.788 113.999 152.649C114.53 153.958 111.869 154.305 111.999 155.649L125.999 181.649C127.2 182.81 131.064 178.775 130.999 177.649C124.393 164.197 114.592 152.601 108.999 138.649C106.148 131.536 104.403 124.405 104.999 116.649C105.504 110.097 110.049 98.375 107.999 92.6489C106.524 88.5228 101.664 85.6315 97.9992 83.6489C84.9382 76.575 69.8751 73.5576 54.9992 73.6489C53.6718 72.4576 67.6457 56.1924 68.9992 54.6489C80.2149 41.8968 90.3386 31.9011 102.999 20.6489C106.855 17.2228 108.091 15.2968 102.999 12.6489C92.1622 7.01849 68.5075 4.26197 55.9992 2.64893C42.8729 0.957621 23.8774 -1.05977 10.9992 0.648925C8.92319 0.922838 3.92521 0.966317 3.9992 3.64893C4.05578 5.71414 9.54556 12.475 10.9992 14.6489C18.9594 26.5837 25.6493 41.6185 31.9992 54.6489C35.0762 60.9663 38.577 67.4837 38.9992 74.6489C37.7327 75.5228 37.3136 75.5837 35.9992 76.6489C31.9473 79.9185 33.4009 84.2315 35.9992 87.6489C28.5569 88.0707 29.7776 95.1141 33.9992 99.6489C34.4562 100.14 35.9992 101.184 35.9992 101.649C35.9992 101.827 35.1602 102.171 34.9992 102.649C34.107 105.358 36.7468 106.662 36.9992 108.649C37.404 111.823 35.6607 121.066 34.9992 124.649C33.2714 134.01 31.6993 140.536 22.9992 145.649C17.881 148.658 4.15891 153.605 0.999198 157.649C-0.737335 159.871 -0.0550462 159.636 1.9992 160.649C11.8439 165.514 25.1143 168.323 35.9992 169.649C47.3454 171.032 58.8271 171.423 69.9992 168.649C71.2309 166.905 64.3049 160.866 62.9992 159.649C56.7277 153.797 48.4147 148.501 45.9992 139.649C44.5586 134.362 44.9329 124.197 45.9992 118.649C46.0601 118.332 46.2854 117.366 46.9992 117.649C47.713 117.932 49.02 119.118 49.9992 119.649C52.2667 120.875 58.9242 122.866 59.9992 124.649C60.6259 125.684 61.342 128.418 61.9992 129.649C62.4344 130.466 63.9513 132.127 63.9992 132.649C64.0427 133.14 62.2299 135.549 61.9992 136.649C59.3618 149.262 69.4033 152.927 73.9992 162.649C75.8184 166.492 77.489 171.618 78.9992 175.649C80.9882 180.953 84.4183 194.858 86.9992 198.649C88.875 201.405 91.4357 199.11 93.9992 198.649L82.9992 170.649C81.9677 170.253 80.7347 172.175 79.9992 171.649C79.4987 171.292 75.9349 162.392 74.9992 160.649C70.2161 151.758 62.6631 149.527 63.9992 137.649C64.1559 136.245 64.7816 135.071 64.9992 133.649C67.641 134.475 68.1408 138.097 69.9992 139.649C69.799 135.61 66.9446 133.753 64.9992 130.649C66.4006 130.549 67.8502 131.305 68.9992 131.649C70.5312 132.105 67.6999 130.071 66.9992 129.649C63.7046 127.666 62.4344 128.853 61.9992 123.649C63.8271 123.197 65.3932 124.579 66.9992 124.649C67.3256 124.662 67.0514 123.701 66.9992 123.649C66.4073 123.014 62.0829 121.345 60.9992 121.649C60.1026 115.997 58.9892 110.566 55.9992 105.649C55.7642 105.266 56.0645 103.749 55.9992 103.649C56.7565 103.805 56.4813 104.027 56.9992 103.649C58.0785 102.853 60.0156 100.618 60.9992 99.6489C61.3691 99.2837 62.2038 99.4794 61.9992 98.6489C61.1723 97.9141 55.6902 101.884 55.9992 103.649ZM5.9992 3.64893C6.66509 2.63153 22.736 1.60545 24.9992 1.64893C44.6233 2.04458 83.4119 6.67067 100.999 14.6489C101.809 15.0141 104.878 15.3576 103.999 16.6489C103.29 17.6924 85.5017 18.7272 82.9992 18.6489C63.0182 18.0315 37.2142 14.1489 17.9992 8.64892C15.0789 7.81414 9.42338 6.07501 6.9992 4.64892C6.47258 4.34023 5.56833 4.30545 5.9992 3.64893ZM7.9992 7.64892C22.4485 12.6185 37.8361 15.662 52.9992 17.6489C68.8326 19.7228 85.0222 20.4576 100.999 19.6489C95.5807 23.9533 90.7736 28.6402 85.9992 33.6489C76.3634 43.7533 66.9788 57.2837 56.9992 66.6489C55.0668 68.4663 49.6192 71.8489 46.9992 71.6489C43.7612 71.4011 39.5921 65.3576 37.9992 62.6489C29.7518 48.6185 23.5861 31.662 14.9992 17.6489C12.8623 14.162 10.2101 11.0794 7.9992 7.64892ZM39.9992 68.6489L43.9992 72.6489C47.4897 74.9272 51.1224 72.7315 53.9992 70.6489L50.9992 80.6489C49.3758 79.7576 47.5965 78.5924 45.9992 77.6489C44.9938 77.0533 41.491 76.1446 40.9992 75.6489C39.9764 74.6141 41.0133 70.162 39.9992 68.6489ZM39.9992 76.6489C41.2178 76.8663 45.0253 80.475 44.9992 81.6489C44.9818 82.3663 40.9567 85.6185 39.9992 85.6489C39.0417 85.6794 36.5302 83.4533 35.9992 82.6489C33.9537 79.562 36.8221 76.0837 39.9992 76.6489ZM37.9992 100.649C31.732 98.075 28.5974 87.8576 38.9992 90.6489L37.9992 100.649ZM1.9992 158.649C2.85658 157.197 4.58908 156.475 5.9992 155.649C13.633 151.201 25.3935 148.484 30.9992 141.649C38.9855 131.91 38.7709 106.384 40.9992 93.6489C41.0688 93.2489 40.6597 92.875 40.9992 92.6489C42.1351 94.2098 46.9078 96.962 46.9992 98.6489C45.8894 110.775 41.8763 124.484 42.9992 136.649C44.0785 148.345 54.4133 153.653 61.9992 160.649C62.6825 161.279 68.7173 167.032 67.9992 167.649C57.1927 169.258 46.8101 168.953 35.9992 167.649C24.3788 166.249 12.7231 163.345 1.9992 158.649ZM47.9992 99.6489C48.3909 99.1881 51.638 102.236 51.9992 102.649C56.7388 108.023 58.3192 115.858 59.9992 122.649C55.7384 120.258 50.7813 118.875 46.9992 115.649L47.9992 99.6489ZM37.9992 106.649C36.6021 105.732 35.9362 102.771 37.9992 102.649V106.649Z" fill="#F9E8C7"/>
<path d="M124.999 183.649L109.999 156.649C109.381 156.288 104.495 158.997 103.999 159.649C103.647 160.114 103.734 160.101 103.999 160.649L116.999 186.649C117.108 186.805 116.812 187.597 116.999 187.649C118.266 188.023 123.371 184.066 124.999 183.649Z" fill="#F9E8C7"/>
<path d="M101.999 160.649C101.699 160.579 97.4029 163.436 97.9992 164.649L108.999 190.649C109.704 191.097 115.252 189.214 114.999 187.649L101.999 160.649Z" fill="#F9E8C7"/>
<path d="M83.9992 169.649L94.9992 196.649C97.184 196.805 98.9058 195.988 100.999 195.649L89.9992 167.649L83.9992 169.649Z" fill="#F9E8C7"/>
<path d="M95.9992 164.649C95.5335 164.323 90.8991 166.597 90.9992 167.649L102.999 193.649C103.665 194.505 108.078 192.423 107.999 191.649L95.9992 164.649Z" fill="#F9E8C7"/>
<path d="M79.9992 90.6489L89.9992 83.6489C88.1974 83.0663 78.2061 88.6663 79.9992 90.6489Z" fill="#F9E8C7"/>
<path d="M90.9992 89.6489C89.7936 89.7924 87.9393 90.8228 86.9992 91.6489C89.4669 91.8881 93.6751 91.4446 95.9992 90.6489C96.6216 90.4359 97.1298 90.4794 96.9992 89.6489C95.1408 89.8055 92.8184 89.4359 90.9992 89.6489Z" fill="#F9E8C7"/>
<path d="M84.9992 89.6489C87.8542 89.3055 91.2921 87.7315 93.9992 86.6489C94.5693 86.4228 95.1907 86.7098 94.9992 85.6489C91.7568 85.7707 87.5017 87.5924 84.9992 89.6489Z" fill="#F9E8C7"/>
<path d="M44.9992 91.6489C45.4692 92.1185 48.4726 89.1794 48.9992 88.6489C49.9088 87.7272 52.2038 87.2881 51.9992 85.6489C50.2496 85.3315 44.2941 90.9446 44.9992 91.6489Z" fill="#F9E8C7"/>
<path d="M54.9992 89.6489C54.0287 90.6402 53.0785 91.6054 51.9992 92.6489C51.5553 93.0794 47.3942 94.9837 47.9992 95.6489C50.6889 93.8968 54.5717 92.6576 55.9992 89.6489C56.2168 88.6272 55.1559 89.4924 54.9992 89.6489Z" fill="#F9E8C7"/>
<path d="M57.9992 106.649C58.3517 106.971 63.2332 105.005 63.9992 104.649C64.5606 104.388 65.1776 104.627 64.9992 103.649C62.8666 103.962 58.6651 104.105 57.9992 106.649Z" fill="#F9E8C7"/>
<path d="M47.9992 91.6489C48.2473 91.9011 51.6815 89.9489 51.9992 89.6489C52.3169 89.3489 54.417 87.0359 53.9992 86.6489C52.811 86.3402 47.5117 91.162 47.9992 91.6489Z" fill="#F9E8C7"/>
<path d="M5.9992 3.64893C5.56833 4.30545 6.47258 4.34023 6.9992 4.64892C9.42773 6.07936 15.0832 7.81414 17.9992 8.64892C37.2142 14.1489 63.0182 18.0359 82.9992 18.6489C85.5017 18.7272 103.285 17.6924 103.999 16.6489C104.878 15.3576 101.809 15.0185 100.999 14.6489C83.4119 6.67067 44.6233 2.04458 24.9992 1.64893C22.736 1.60545 6.66509 2.63153 5.9992 3.64893Z" fill="#F9E8C7"/>
<path d="M42.9992 164.649C43.1037 165.279 43.5205 165.466 43.9992 165.649C48.3906 167.314 55.8211 166.958 59.9992 164.649C60.2821 163.749 57.4953 163.623 56.9992 163.649C52.2074 163.914 47.8345 164.862 42.9992 164.649Z" fill="#F9E8C7"/>
<path d="M42.9992 113.649C42.0025 114.697 41.4997 127.384 40.9992 129.649C42.0655 129.827 41.8251 129.292 41.9992 128.649C42.6781 126.149 44.3039 116.932 43.9992 114.649C43.9296 114.136 43.5302 113.088 42.9992 113.649Z" fill="#F9E8C7"/>
<path d="M18.9992 17.6489L17.9992 18.6489C23.4612 29.9315 30.3186 41.9924 36.9992 52.6489C40.5854 58.3663 45.1348 65.3794 52.9992 62.6489C58.9748 60.575 75.9332 42.2054 80.9992 36.6489C82.7662 34.7098 86.7806 30.5011 87.9992 28.6489C90.0317 25.562 87.863 25.9359 84.9992 25.6489C79.2456 25.0707 73.0444 25.2881 66.9992 24.6489C57.7116 23.6663 47.2172 22.1054 37.9992 20.6489C32.572 19.7881 27.2175 18.3924 21.9992 17.6489C20.9982 17.5054 20.0002 17.5011 18.9992 17.6489Z" fill="#F9E8C7"/>
</g>
</svg>
