<svg width="28" height="29" viewBox="0 0 28 29" fill="none" xmlns="http://www.w3.org/2000/svg">
<g clip-path="url(#clip0_217_736)">
<path d="M0 0.5V28.5H28V0.5H0ZM2.16451 20.1118C1.05956 17.5552 0.754297 14.7204 1.3336 11.9836C1.8112 9.72676 2.41453 7.91082 3.78728 6.03728C7.17311 1.41615 13.2424 -0.334892 18.6024 1.79084C20.7245 2.63245 22.9067 4.3728 24.2316 6.22647C25.5558 8.07901 26.0934 9.86572 26.5871 12.0629C27.2358 14.9488 26.9175 17.8525 25.6763 20.529C23.3145 25.622 18.0652 28.6939 12.4226 27.9868C7.82023 27.4101 3.98092 24.3146 2.16451 20.1118Z" fill="#FFFCE3"/>
<path d="M2.16444 20.1118C3.98085 24.3147 7.82016 27.4101 12.4226 27.9868C18.0651 28.6939 23.3145 25.622 25.6762 20.529C26.9174 17.8525 27.2356 14.9488 26.5871 12.0629C26.0933 9.86572 25.5558 8.07901 24.2316 6.22647C22.9066 4.3728 20.7244 2.63245 18.6023 1.79084C13.2423 -0.334891 7.17304 1.41615 3.78722 6.03719C2.41446 7.91073 1.81123 9.72666 1.33352 11.9835C0.754322 14.7203 1.05958 17.5551 2.16444 20.1117V20.1118ZM14.5903 1.43261C20.1418 1.65992 24.8686 5.71661 25.8561 11.1857C26.9604 17.3014 23.5995 23.0768 17.7036 24.9861C12.4406 26.6905 7.11609 24.8169 3.99532 20.333C0.47858 15.2802 1.42717 8.34804 6.06401 4.35993C8.50219 2.26277 11.3605 1.30027 14.5904 1.43261H14.5903Z" fill="#464D33"/>
<path d="M14.5905 1.43261C11.3605 1.30036 8.50227 2.26286 6.06409 4.35993C1.42735 8.34804 0.478758 15.2802 3.99541 20.333C7.11618 24.817 12.4407 26.6905 17.7037 24.9861C23.5997 23.0768 26.9606 17.3014 25.8563 11.1857C24.8687 5.71661 20.1419 1.65992 14.5905 1.43261ZM14.4202 2.35963C15.5276 2.41535 16.7211 2.7032 17.7558 3.09161C22.0045 4.68628 24.7089 8.59673 24.8782 13.1287C24.8817 13.2231 24.8992 13.5051 24.8414 13.5645C24.7811 13.6263 24.3795 13.6244 24.2816 13.6119C24.2512 13.608 24.2219 13.6046 24.2067 13.5733C24.1768 13.5119 24.2032 13.206 24.1981 13.1089C23.899 7.36766 19.051 2.46047 13.1584 2.86505C7.71893 3.23861 3.70301 8.20974 3.2832 13.4412C3.24887 13.5646 2.93472 13.5321 2.8651 13.4606C2.76596 13.3588 2.82319 13.2796 2.81903 13.185C2.75745 11.7633 3.24962 9.96504 3.86222 8.68508C5.798 4.64041 9.90331 2.13232 14.4202 2.35963ZM14.3074 3.95762C14.2939 3.94438 14.2874 3.91628 14.2873 3.89708C14.3311 3.73712 14.3255 3.32526 14.4548 3.21553C14.5489 3.13569 14.8377 3.22347 14.9579 3.24097C15.0318 3.25176 15.2014 3.20815 15.1891 3.32346C15.1824 3.38561 15.1109 3.4907 15.0879 3.56477C15.0448 3.70382 15.0406 3.85139 15.0042 3.99177L14.3878 3.98108C14.363 3.97834 14.3253 3.97493 14.3075 3.95762H14.3074ZM15.6694 3.39895C15.7056 3.36016 15.9454 3.426 16.0091 3.4383C16.0911 3.45419 16.4869 3.53005 16.5176 3.57763C16.5798 3.67384 16.4554 3.77222 16.4181 3.85451C16.368 3.96538 16.3529 4.2713 16.2093 4.26089C16.0282 4.18796 15.7728 4.18143 15.5993 4.11295C15.5394 4.0893 15.5312 4.0787 15.5337 4.01249C15.5358 3.95573 15.648 3.42193 15.6695 3.39895H15.6694ZM10.9354 4.41631C10.9293 4.28672 10.8367 3.78773 10.8959 3.70534C10.9125 3.68216 10.9549 3.6693 10.9816 3.65861C11.1163 3.60478 11.3743 3.52854 11.5177 3.49467C11.8368 3.41938 11.7179 3.54661 11.7301 3.76332C11.7358 3.86388 11.8361 4.11862 11.7881 4.18153C11.746 4.23668 11.0506 4.33723 10.9353 4.41631H10.9354ZM17.1831 3.77676C17.2757 3.84193 17.7367 3.97058 17.7615 4.05108C17.7931 4.15362 17.6757 4.24301 17.629 4.32768C17.5875 4.40297 17.5383 4.59358 17.4488 4.62054C17.3523 4.64958 16.9307 4.51062 16.8987 4.40297C16.8621 4.28 16.9496 4.20234 16.9848 4.09961C17.0234 3.98676 17.0353 3.74242 17.1831 3.77685V3.77676ZM10.3367 3.94542C10.3636 3.95469 10.3606 3.96992 10.3668 3.9913C10.3915 4.07539 10.4129 4.37109 10.4005 4.45859C10.3883 4.54439 10.3596 4.59916 10.2908 4.65147C10.2256 4.70104 9.9018 4.86961 9.83662 4.82411C9.80692 4.8033 9.82016 4.43722 9.78147 4.36873C9.78384 4.30753 9.7688 4.23166 9.79509 4.17472C9.82631 4.10708 10.2631 3.91997 10.3367 3.94542ZM18.2995 4.30592C18.3309 4.31131 18.6961 4.50447 18.7362 4.53285C18.8601 4.62082 18.8208 4.66415 18.7567 4.77416C18.6926 4.88418 18.5946 4.98672 18.5417 5.1078C18.4741 5.17713 18.2555 5.07847 18.1745 5.0378C18.0415 4.97111 17.9914 4.93128 18.0126 4.76782C18.0202 4.70974 18.1901 4.3569 18.2283 4.32143C18.2543 4.29731 18.2675 4.30034 18.2995 4.30592ZM8.91187 5.36122L8.81944 4.6948C8.83269 4.64788 9.28882 4.37592 9.30812 4.3973C9.31522 4.49776 9.2979 4.60881 9.30973 4.70785C9.33026 4.87869 9.42523 4.94982 9.29753 5.13381C9.25581 5.19397 8.95661 5.39924 8.91187 5.36112V5.36122ZM14.1175 4.85693C20.6727 5.19227 24.3157 12.758 20.4858 18.1384C16.5718 23.6369 7.93991 22.4994 5.69432 16.1179C3.66849 10.3608 8.04718 4.54647 14.1175 4.85693ZM19.3778 4.9694C19.4583 4.99097 19.9369 5.37701 19.9372 5.42819C19.8805 5.48542 19.6552 5.82 19.6056 5.83258C19.5536 5.84573 19.4681 5.75407 19.4166 5.72541C19.2842 5.65162 18.9777 5.55126 19.0566 5.3579C19.071 5.32253 19.2526 4.99788 19.2686 4.98369C19.2999 4.95607 19.3393 4.95919 19.3777 4.9695L19.3778 4.9694ZM7.98408 6.04324C7.9733 5.91838 7.78959 5.52619 7.81674 5.43263C7.83661 5.36424 8.33209 4.9729 8.36208 5.0028L8.48742 5.666C8.34014 5.80695 8.15047 5.91857 7.98418 6.04324H7.98408ZM7.39712 5.77838C7.41926 5.9302 7.61213 6.23555 7.5865 6.37357C7.57117 6.45615 7.23886 6.68346 7.17974 6.7807C7.11759 6.63957 6.90277 6.39826 6.9284 6.24653C6.9442 6.15278 7.03899 6.06907 7.10359 6.00484C7.13803 5.97059 7.37035 5.7587 7.39712 5.77828V5.77838ZM20.4203 5.81915L20.878 6.28749C20.7173 6.73095 20.3478 6.59236 20.12 6.28957C20.0112 6.14503 20.1351 6.12043 20.224 6.01449C20.2619 5.96927 20.3474 5.80486 20.4203 5.81915ZM6.55145 6.67031C6.59534 6.6827 6.75908 6.90377 6.78065 6.95334C6.85756 7.12985 6.77563 7.1867 6.67773 7.31951C6.617 7.4019 6.49223 7.56631 6.42365 7.6329C6.4088 7.64728 6.39347 7.67339 6.36897 7.66895C6.34655 7.66488 6.05255 7.39008 6.03439 7.35924C6.01746 7.33058 6.01301 7.31895 6.01642 7.28432C6.02578 7.18831 6.41939 6.8034 6.4787 6.68526C6.49989 6.66511 6.52449 6.66265 6.55164 6.6704L6.55145 6.67031ZM21.3269 6.80255C21.3965 6.82138 21.7431 7.3583 21.8233 7.44419C21.8321 7.45753 21.8346 7.47124 21.8307 7.48685C21.8154 7.54786 21.4865 7.67746 21.4178 7.60226C21.3643 7.52876 20.9941 7.08085 21.0025 7.03885C21.0774 6.99108 21.237 6.77805 21.3269 6.80246V6.80255ZM5.41092 8.18089C5.38642 8.15261 5.63993 7.79485 5.68761 7.74746C5.71485 7.74273 6.1042 8.05205 6.10893 8.07977L5.83451 8.48293C5.6842 8.39392 5.60276 8.19224 5.41082 8.18089H5.41092ZM22.1783 8.01355C22.2336 8.02831 22.4685 8.47054 22.514 8.55161C22.5178 8.61508 22.3885 8.68385 22.3315 8.70845C22.2675 8.73607 22.2101 8.76946 22.1437 8.73077C22.0721 8.68905 21.8062 8.28012 21.8126 8.20974C21.8159 8.17304 21.9805 8.0809 22.0242 8.06057C22.0679 8.04023 22.1343 8.00182 22.1783 8.01355ZM5.13045 8.61953C5.18389 8.58784 5.5057 8.79358 5.55073 8.84532C5.66718 8.97899 5.54118 9.04331 5.48291 9.15181C5.4393 9.23307 5.3816 9.39369 5.33326 9.45612C5.27309 9.53378 5.0787 9.40996 5.01476 9.36247C4.83777 9.23089 4.85707 9.15238 4.93463 8.96309C4.95185 8.92109 5.11342 8.62974 5.13045 8.61962V8.61953ZM22.4248 9.28377C22.456 9.24688 22.7418 9.11161 22.7788 9.13535C22.8255 9.25265 23.0757 9.70557 23.0629 9.79761C23.0461 9.91878 22.7428 9.9464 22.6549 9.86553C22.6162 9.82986 22.6246 9.79458 22.6068 9.7662C22.5271 9.63888 22.5432 9.59309 22.4935 9.48213C22.4727 9.43569 22.3475 9.37505 22.4247 9.28377H22.4248ZM4.73495 9.73697C4.79132 9.74653 4.9651 9.82211 5.01239 9.85663C5.20035 9.9938 5.05978 10.1084 5.00832 10.2662C4.98316 10.3432 4.96036 10.5927 4.86851 10.5993C4.82443 10.6024 4.67015 10.4666 4.61755 10.4407C4.54699 10.4059 4.38409 10.3982 4.37009 10.3084C4.35903 10.2373 4.52116 9.82949 4.56969 9.77084C4.61434 9.71692 4.671 9.72609 4.73495 9.73697ZM23.2388 10.3213C23.2808 10.335 23.3512 10.5862 23.37 10.6449C23.4021 10.7449 23.5149 11.0683 23.461 11.1433C23.43 11.1864 23.1658 11.2548 23.1106 11.2461C23.0664 11.2392 23.0505 11.2074 23.034 11.1701C22.9971 11.0869 22.9098 10.7569 22.8965 10.6642C22.8922 10.6336 22.8883 10.6068 22.8928 10.5756C22.9069 10.477 23.1407 10.289 23.2389 10.3212L23.2388 10.3213ZM4.18128 10.7918C4.26273 10.8246 4.7498 10.9858 4.76493 11.0316L4.60601 11.7376C4.41285 11.6487 4.23955 11.4851 4.01082 11.5107L4.18128 10.7918ZM23.5024 11.7045C23.5957 11.7217 23.6526 11.7992 23.6822 11.884C23.7072 11.9554 23.7647 12.1703 23.7765 12.2436C23.8192 12.5097 23.6773 12.4345 23.5066 12.4566C23.4106 12.469 23.2776 12.5617 23.2373 12.4235C23.2188 12.3602 23.1504 11.8734 23.1603 11.8274C23.1833 11.7197 23.4078 11.6872 23.5022 11.7045H23.5024ZM4.50272 12.7406C4.33878 12.7206 4.21335 12.5935 4.05396 12.5367C3.97999 12.5103 3.9027 12.5047 3.82987 12.477C3.81237 12.3828 3.82324 12.0931 3.90545 12.0393C4.01168 11.9698 4.11403 12.1195 4.2019 12.1617C4.29376 12.2059 4.47188 12.2053 4.52268 12.295C4.58312 12.4018 4.5117 12.6198 4.50272 12.7406ZM3.74615 12.8731L4.05481 13.0466C4.37492 13.1788 4.58889 13.0802 4.4435 13.5703L3.81236 13.5541C3.77699 13.5502 3.70916 13.5367 3.68769 13.5085C3.62951 13.4319 3.75504 12.9924 3.74624 12.8731H3.74615ZM23.7678 12.9337C23.8451 12.951 23.8951 13.0417 23.9092 13.1139C23.9269 13.2042 23.9541 13.5134 23.9116 13.5804C23.8586 13.6644 23.4269 13.6404 23.3469 13.5815C23.2568 13.5151 23.246 13.1077 23.3075 13.0141C23.3655 12.9258 23.672 12.9122 23.7678 12.9337ZM24.5799 14.1078C24.7509 14.1261 25.0449 14.1458 25.18 14.2458C25.315 14.3458 25.3248 14.558 25.1755 14.6361C24.9326 14.7632 24.5434 14.517 24.4677 14.2769C24.4297 14.1565 24.4428 14.0931 24.5799 14.1078ZM4.88933 18.0302C4.39592 17.0184 3.97393 15.5812 3.93449 14.4535C3.92654 14.2261 3.8992 14.126 4.15319 14.103C4.33216 14.0868 4.48578 14.0573 4.53545 14.2498C4.59835 14.4939 4.59551 14.8419 4.6412 15.1089C5.15797 18.1235 7.40166 20.7444 10.1657 21.9574C15.747 24.4067 22.022 20.9537 23.1131 15.0331C23.1635 14.7594 23.1797 14.4813 23.2344 14.2086C23.2871 14.1243 23.5457 14.1436 23.6392 14.1403C23.8546 14.1328 23.8975 14.0647 23.8734 14.3556C23.8201 14.9994 23.4849 16.0129 23.2518 16.6286C21.194 22.0648 14.8112 24.9304 9.43393 22.4431C7.47677 21.5378 5.82799 19.9548 4.88942 18.03L4.88933 18.0302ZM2.89867 14.638C3.0103 14.6485 3.24083 14.6863 3.26939 14.8164C3.35046 15.1851 2.24455 15.3059 2.44254 14.8141C2.50828 14.6507 2.74486 14.6236 2.89858 14.6381L2.89867 14.638ZM24.7309 14.8841C24.8398 14.8927 25.0615 14.9206 25.1497 14.9761C25.4185 15.1455 25.2375 15.547 24.9111 15.4416C24.829 15.4151 24.4215 15.1594 24.3856 15.0971C24.3527 15.0399 24.3575 14.9369 24.417 14.8993C24.4776 14.8609 24.6535 14.878 24.7309 14.8841ZM2.67411 15.6226C2.82773 15.4642 3.22162 15.5439 3.39946 15.6317C3.55214 15.7072 3.46984 15.7883 3.36786 15.8718C3.21755 15.995 2.89035 16.0773 2.71781 15.9727C2.60373 15.9037 2.58055 15.719 2.67411 15.6226V15.6226ZM24.4662 15.6786C24.7116 15.6999 25.11 15.8147 25.0444 16.1321C24.9917 16.3873 24.6559 16.2527 24.5064 16.1681C24.2609 16.0288 23.9376 15.6325 24.4662 15.6786ZM3.31518 16.3971C3.4127 16.4082 3.81842 16.4777 3.72818 16.6294C3.68722 16.6983 3.19362 16.9707 3.10395 16.9889C2.87891 17.0346 2.65982 16.8308 2.75877 16.606C2.85563 16.3858 3.10281 16.373 3.31508 16.3971H3.31518ZM23.9552 16.4922C24.1081 16.501 24.5145 16.5598 24.6229 16.6569C24.8503 16.8607 24.6381 17.306 24.2857 17.0888C24.2301 17.0545 23.8134 16.639 23.8034 16.6054C23.7664 16.4812 23.8719 16.4873 23.9552 16.4922ZM23.5399 17.2101C23.6012 17.1391 24.056 17.263 24.1505 17.2996C24.3652 17.3828 24.5846 17.6355 24.4027 17.8554C24.2687 18.0173 24.094 17.9356 23.9531 17.8375C23.8357 17.7558 23.4071 17.3641 23.5399 17.2101ZM3.63632 17.3435C3.99626 17.3777 4.01451 17.494 3.75495 17.7156C3.55932 17.8826 3.26268 18.0757 3.07926 17.7871C3.01011 17.6782 3.00547 17.6041 3.08399 17.4988C3.21018 17.3296 3.44411 17.3253 3.63632 17.3435ZM23.2934 18.1375C23.451 18.1545 23.749 18.1879 23.8746 18.2756C24.0074 18.3684 24.0853 18.5595 23.9202 18.6593C23.69 18.7986 23.3003 18.5149 23.2101 18.2967C23.1611 18.1781 23.1398 18.1211 23.2935 18.1374L23.2934 18.1375ZM4.33774 18.1745C4.49978 18.2097 4.33226 18.4478 4.27531 18.5198C4.13342 18.699 3.86335 18.8875 3.62743 18.8092C3.37751 18.7262 3.43124 18.4 3.61494 18.2756C3.73962 18.1912 4.19207 18.1429 4.33784 18.1745H4.33774ZM22.7073 18.7236C22.7284 18.7023 22.7724 18.6995 22.8019 18.7035C22.8805 18.7139 23.0679 18.7796 23.1525 18.8085C23.397 18.892 23.7496 18.9982 23.6388 19.3239C23.5226 19.6653 23.2322 19.5062 23.0346 19.3428C22.9162 19.2449 22.5503 18.8822 22.7074 18.7236L22.7073 18.7236ZM4.84903 19.0254C4.87977 19.0344 4.89405 19.0585 4.89973 19.0885C4.95895 19.4005 4.35458 19.9102 4.14326 19.5799C3.91084 19.2166 4.60914 18.955 4.84903 19.0255V19.0254ZM22.3671 19.3847C22.4186 19.3949 22.5371 19.4659 22.6035 19.4898C22.7253 19.5336 23.0256 19.6048 23.1005 19.6928C23.2996 19.9265 22.9647 20.3018 22.6645 20.072C22.5617 19.9933 22.2469 19.5806 22.2472 19.4658C22.2474 19.392 22.3014 19.3716 22.367 19.3847H22.3671ZM5.55016 19.8189C5.59084 19.8324 5.58261 19.8869 5.58251 19.9206C5.58204 20.1005 5.37223 20.3931 5.23119 20.4973C4.82642 20.7965 4.49723 20.2609 4.9248 20.0017C5.02119 19.9433 5.45831 19.7882 5.55016 19.8188V19.8189ZM21.7614 20.1613C21.8446 20.0781 22.0245 20.2144 22.1113 20.2469C22.2639 20.3042 22.5612 20.343 22.6252 20.4896C22.7405 20.7531 22.5024 20.9773 22.2496 20.8654L21.7475 20.2888C21.7292 20.2566 21.737 20.1857 21.7614 20.1613ZM6.09711 20.5387C6.13759 20.5473 6.18622 20.5896 6.19794 20.6293C6.25565 20.8253 5.87916 21.3408 5.68099 21.3821C5.48981 21.4221 5.31358 21.3328 5.32512 21.1209C5.33846 20.8741 5.86213 20.4887 6.09711 20.5387ZM21.3452 20.7652C21.4056 20.7714 21.7584 20.9394 21.833 20.9793C22.0137 21.0762 22.2227 21.1926 22.0754 21.4306C21.8602 21.7782 21.4001 21.2849 21.2959 21.0624C21.2567 20.9789 21.1967 20.7499 21.3452 20.7652ZM6.81603 21.2006C6.97712 21.2468 6.82256 21.6196 6.7763 21.7208C6.71472 21.8556 6.60272 22.0673 6.43992 22.0853C6.20239 22.1116 6.08036 21.9221 6.11546 21.7032C6.14043 21.5477 6.42459 21.3698 6.5593 21.2958C6.62201 21.2612 6.74934 21.1816 6.81603 21.2007V21.2006ZM20.6831 21.3715C20.7225 21.3816 20.7832 21.4477 20.8293 21.4722C20.9618 21.5427 21.2138 21.6091 21.3001 21.7202C21.509 21.9893 21.1573 22.3487 20.8772 22.1431C20.7176 22.0258 20.4986 21.6412 20.5587 21.4463C20.5787 21.3816 20.6113 21.3532 20.6831 21.3714V21.3715ZM7.42134 21.8438C7.6005 21.8804 7.51858 22.1723 7.48273 22.2948C7.41888 22.5129 7.24303 22.8492 6.96776 22.7149C6.56847 22.52 7.13538 21.7854 7.42134 21.8438ZM19.9081 21.9768C19.9689 21.9905 20.0391 22.0876 20.0971 22.1287C20.3167 22.2838 20.6722 22.3294 20.6415 22.6834C20.6206 22.924 20.2911 23.0174 20.1325 22.85C20.033 22.745 19.7981 22.2518 19.7745 22.1101C19.7565 22.0015 19.7974 21.9518 19.908 21.9767L19.9081 21.9768ZM19.1888 22.3546C19.2122 22.358 19.2556 22.3852 19.2773 22.4C19.3612 22.457 19.7759 22.9791 19.7992 23.0697C19.9037 23.4738 19.2963 23.5969 19.1557 23.2403C19.117 23.1422 19.0289 22.6178 19.0318 22.5129C19.034 22.4296 19.1 22.3418 19.1888 22.3546ZM8.38649 22.4119C8.47843 22.4389 8.4615 22.5862 8.45658 22.6633C8.43823 22.9517 8.24412 23.5645 7.84654 23.3874C7.47885 23.2237 7.81145 22.7738 8.00262 22.6066C8.0764 22.5421 8.29237 22.3842 8.38649 22.4119ZM9.19962 22.8466C9.32922 22.8733 9.27095 23.018 9.26953 23.0979C9.26574 23.3132 9.27889 23.4499 9.14618 23.6366C8.92095 23.9535 8.53131 23.7828 8.61711 23.4481C8.64198 23.351 8.90449 23.049 8.98603 22.9657C9.04609 22.9044 9.10153 22.8265 9.19953 22.8466H9.19962ZM18.4134 22.8841C18.4419 22.8886 18.4627 22.9117 18.4843 22.9281C18.5584 22.9845 18.7897 23.2363 18.853 23.316C19.1084 23.6379 18.8158 23.9655 18.4837 23.8178C18.2811 23.7276 18.2815 23.3086 18.2948 23.1178C18.3009 23.0312 18.299 22.8664 18.4134 22.8841ZM17.4863 23.1871C17.6207 23.2156 17.9259 23.6661 17.9678 23.8039C18.1171 24.2943 17.5315 24.3594 17.4185 23.9938C17.3517 23.7778 17.3963 23.4916 17.3504 23.2675C17.369 23.2014 17.4197 23.173 17.4863 23.1871ZM10.0223 23.3401C10.1872 23.498 10.0753 24.1755 9.83255 24.2662C9.6603 24.3306 9.48823 24.2427 9.46326 24.0583C9.44699 23.9381 9.56968 23.7373 9.63674 23.6353C9.69114 23.5525 9.90747 23.2302 10.0223 23.3401ZM16.5975 23.5469C16.674 23.5702 17.0473 24.0954 17.0708 24.1899C17.1484 24.5015 16.7439 24.665 16.5648 24.4313C16.4301 24.2555 16.464 24.0043 16.4604 23.7978C16.4588 23.7066 16.4001 23.4869 16.5976 23.5469H16.5975ZM10.9408 23.6403C11.015 23.6621 11.1161 24.0015 11.1242 24.0826C11.1395 24.2346 11.1184 24.418 11.0013 24.5268C10.6954 24.8114 10.3649 24.404 10.5561 24.0628C10.5822 24.0162 10.8549 23.6583 10.8789 23.6472C10.9011 23.6369 10.9164 23.6331 10.9408 23.6403ZM15.5189 23.7546C15.5956 23.7771 15.78 24.1419 15.8196 24.2305C15.8948 24.3984 15.9589 24.5199 15.8351 24.6877C15.6696 24.9118 15.336 24.799 15.3054 24.5366C15.2942 24.44 15.3136 23.9938 15.3328 23.9018C15.352 23.8097 15.4217 23.7261 15.5188 23.7547L15.5189 23.7546ZM14.4779 23.851C14.5602 23.7736 14.6293 23.8575 14.6742 23.9192C14.8239 24.1249 14.949 24.4253 14.881 24.6794C14.7865 25.0328 14.3124 24.9356 14.2927 24.6035C14.2879 24.5218 14.4328 23.8933 14.4779 23.8509V23.851ZM11.8107 23.8302C11.8311 23.8361 11.8492 23.8576 11.8626 23.8739C11.9291 23.9559 12.0054 24.4007 11.9896 24.5126C11.9262 24.9618 11.2801 24.8836 11.3745 24.4271C11.3884 24.3597 11.5971 23.9675 11.6456 23.9036C11.6843 23.8528 11.7435 23.8107 11.8106 23.8301L11.8107 23.8302ZM12.4365 24.7663C12.2299 24.5723 12.4691 24.1252 12.6283 23.9593C12.8308 23.7482 12.8626 24.0368 12.8969 24.2018C12.9249 24.3365 12.9662 24.5052 12.9317 24.641C12.8775 24.8544 12.5915 24.9118 12.4364 24.7663H12.4365ZM13.7027 23.9633C13.8034 23.9858 13.9443 24.3271 13.9574 24.4278C13.9908 24.6871 13.824 25.0518 13.5173 24.887C13.3796 24.8129 13.3604 24.6591 13.3758 24.5175C13.3835 24.4457 13.528 24.0685 13.5676 24.0094C13.6043 23.9546 13.6382 23.9491 13.7027 23.9633Z" fill="#FFFCE3"/>
<path d="M14.1175 4.85693C8.04714 4.54647 3.66845 10.3608 5.69429 16.1179C7.93987 22.4994 16.5717 23.6369 20.4858 18.1384C24.3157 12.758 20.6728 5.19227 14.1175 4.85693ZM14.3445 6.16234C16.4539 6.28853 18.4495 7.60576 19.5626 9.36314C22.108 13.3817 19.8989 18.8403 15.2334 19.8293C9.79695 20.9816 5.24241 15.6443 7.35074 10.4709C8.5063 7.63537 11.2968 5.98006 14.3446 6.16234H14.3445Z" fill="#464D33"/>
<path d="M14.4199 2.35964C9.90303 2.13242 5.79772 4.64041 3.86194 8.68508C3.24934 9.96514 2.75726 11.7633 2.81875 13.185C2.82282 13.2796 2.76568 13.3588 2.86482 13.4606C2.93435 13.532 3.24859 13.5646 3.28293 13.4412C3.70264 8.20974 7.71865 3.23851 13.1581 2.86505C19.0507 2.46047 23.8987 7.36766 24.1979 13.1087C24.203 13.2059 24.1766 13.5117 24.2065 13.5731C24.2217 13.6044 24.251 13.6078 24.2814 13.6117C24.3793 13.6242 24.781 13.6261 24.8412 13.5643C24.8991 13.5049 24.8816 13.223 24.878 13.1285C24.7086 8.59654 22.0043 4.6861 17.7556 3.09142C16.7209 2.70311 15.5274 2.41516 14.42 2.35945L14.4199 2.35964Z" fill="#464D33"/>
<path d="M4.88941 18.0302C5.82797 19.9549 7.47676 21.538 9.43392 22.4433C14.8111 24.9306 21.194 22.065 23.2518 16.6288C23.4849 16.013 23.8201 14.9995 23.8734 14.3557C23.8975 14.0649 23.8545 14.133 23.6392 14.1404C23.5458 14.1437 23.2872 14.1244 23.2344 14.2087C23.1796 14.4816 23.1636 14.7597 23.1131 15.0333C22.022 20.9538 15.747 24.4069 10.1657 21.9576C7.40165 20.7446 5.15806 18.1237 4.64119 15.1091C4.59541 14.8421 4.59834 14.494 4.53543 14.25C4.48577 14.0575 4.33215 14.087 4.15318 14.1032C3.89919 14.1262 3.92653 14.2262 3.93447 14.4536C3.97392 15.5813 4.39591 17.0185 4.88931 18.0304L4.88941 18.0302Z" fill="#464D33"/>
<path d="M10.9355 4.41631C11.0508 4.33723 11.7462 4.23668 11.7883 4.18153C11.8363 4.11862 11.736 3.86388 11.7303 3.76333C11.718 3.54661 11.837 3.41947 11.5179 3.49468C11.3745 3.52854 11.1165 3.60478 10.9818 3.65861C10.955 3.6693 10.9128 3.68207 10.8961 3.70534C10.8369 3.78773 10.9295 4.28681 10.9356 4.41631H10.9355Z" fill="#464D33"/>
<path d="M15.6694 3.39894C15.648 3.42193 15.5357 3.95573 15.5336 4.01249C15.5312 4.07861 15.5394 4.0893 15.5992 4.11294C15.7726 4.18143 16.0281 4.18796 16.2092 4.26089C16.3529 4.2713 16.3679 3.96538 16.418 3.85451C16.4553 3.77221 16.5797 3.67374 16.5176 3.57763C16.4868 3.53005 16.091 3.45419 16.009 3.4383C15.9453 3.426 15.7055 3.36016 15.6693 3.39894H15.6694Z" fill="#464D33"/>
<path d="M14.3073 3.95762C14.325 3.97493 14.3626 3.97843 14.3875 3.98108L15.004 3.99177C15.0403 3.85139 15.0446 3.70382 15.0877 3.56477C15.1107 3.4907 15.1822 3.38561 15.1888 3.32346C15.2011 3.20815 15.0315 3.25176 14.9576 3.24097C14.8375 3.22347 14.5486 3.13569 14.4546 3.21553C14.3253 3.32535 14.3308 3.73722 14.287 3.89708C14.2871 3.91628 14.2938 3.94438 14.3072 3.95762H14.3073Z" fill="#464D33"/>
<path d="M19.1886 22.3546C19.0998 22.3418 19.0338 22.4296 19.0316 22.5129C19.0288 22.6178 19.1168 23.1423 19.1555 23.2404C19.2962 23.5969 19.9035 23.4738 19.799 23.0697C19.7756 22.979 19.361 22.457 19.2771 22.4C19.2554 22.3852 19.212 22.358 19.1886 22.3546Z" fill="#464D33"/>
<path d="M8.38641 22.4119C8.29229 22.3842 8.07633 22.5421 8.00255 22.6066C7.81137 22.7737 7.47887 23.2237 7.84646 23.3874C8.24405 23.5645 8.43815 22.9518 8.4565 22.6633C8.46142 22.5862 8.47826 22.4389 8.38641 22.4119Z" fill="#464D33"/>
<path d="M22.7072 18.7236C22.5502 18.8821 22.9161 19.2448 23.0344 19.3427C23.232 19.5061 23.5224 19.6652 23.6387 19.3238C23.7495 18.9981 23.397 18.892 23.1524 18.8084C23.0678 18.7795 22.8803 18.7138 22.8017 18.7034C22.7723 18.6995 22.7282 18.7022 22.7071 18.7235L22.7072 18.7236Z" fill="#464D33"/>
<path d="M17.1829 3.77676C17.0351 3.74233 17.0233 3.98666 16.9846 4.09951C16.9494 4.20224 16.8619 4.27991 16.8985 4.40288C16.9305 4.51053 17.3521 4.64958 17.4486 4.62045C17.5381 4.59349 17.5874 4.40288 17.6288 4.32758C17.6755 4.24301 17.7929 4.15353 17.7613 4.05099C17.7365 3.97058 17.2754 3.84184 17.1829 3.77666V3.77676Z" fill="#464D33"/>
<path d="M19.9082 21.9768C19.7976 21.9519 19.7566 22.0015 19.7747 22.1102C19.7983 22.2519 20.0332 22.7451 20.1327 22.8501C20.2913 23.0174 20.6208 22.9241 20.6417 22.6835C20.6724 22.3295 20.3168 22.2839 20.0973 22.1288C20.0393 22.0877 19.9691 21.9906 19.9083 21.9768L19.9082 21.9768Z" fill="#464D33"/>
<path d="M6.09685 20.5387C5.86178 20.4887 5.3382 20.8741 5.32486 21.1209C5.31342 21.3329 5.48965 21.4221 5.68073 21.3821C5.87881 21.3408 6.25529 20.8253 6.19769 20.6293C6.18605 20.5896 6.13734 20.5473 6.09685 20.5387Z" fill="#464D33"/>
<path d="M14.4779 23.851C14.4327 23.8934 14.2878 24.5219 14.2926 24.6036C14.3123 24.9356 14.7863 25.0329 14.8809 24.6795C14.9488 24.4254 14.8239 24.125 14.6741 23.9193C14.6292 23.8576 14.5602 23.7737 14.4779 23.8511V23.851Z" fill="#464D33"/>
<path d="M15.5188 23.7546C15.4217 23.726 15.3511 23.8139 15.3328 23.9017C15.3144 23.9894 15.2942 24.4399 15.3054 24.5365C15.3359 24.7989 15.6696 24.9118 15.8351 24.6877C15.9589 24.5199 15.8948 24.3983 15.8197 24.2304C15.78 24.1418 15.5956 23.7771 15.5189 23.7545L15.5188 23.7546Z" fill="#464D33"/>
<path d="M23.5398 17.2101C23.407 17.3641 23.8356 17.7559 23.953 17.8375C24.094 17.9356 24.2687 18.0173 24.4026 17.8554C24.5844 17.6355 24.3651 17.3828 24.1504 17.2996C24.0559 17.263 23.6011 17.1391 23.5398 17.2101Z" fill="#464D33"/>
<path d="M17.486 23.1871C17.4194 23.173 17.3686 23.2014 17.3501 23.2675C17.3961 23.4916 17.3514 23.7777 17.4182 23.9938C17.5312 24.3594 18.1168 24.2943 17.9675 23.8039C17.9256 23.6661 17.6204 23.2156 17.486 23.1871Z" fill="#464D33"/>
<path d="M4.181 10.7918L4.01054 11.5107C4.23927 11.4852 4.41257 11.6487 4.60573 11.7376L4.76465 11.0316C4.74951 10.9859 4.26245 10.8246 4.181 10.7918Z" fill="#464D33"/>
<path d="M19.3775 4.96941C19.3391 4.9591 19.2996 4.95597 19.2684 4.9836C19.2523 4.99788 19.0707 5.32243 19.0563 5.35781C18.9774 5.55116 19.2839 5.65153 19.4164 5.72531C19.4679 5.75397 19.5533 5.84564 19.6054 5.83249C19.6574 5.81934 19.8802 5.48532 19.937 5.4281C19.9367 5.37692 19.4582 4.99097 19.3776 4.96931L19.3775 4.96941Z" fill="#464D33"/>
<path d="M4.33753 18.1745C4.19185 18.1429 3.73941 18.1912 3.61464 18.2756C3.43093 18.4 3.37721 18.7262 3.62712 18.8092C3.86304 18.8875 4.1332 18.6991 4.275 18.5198C4.33204 18.4478 4.49948 18.2096 4.33744 18.1745H4.33753Z" fill="#464D33"/>
<path d="M6.55115 6.67031C6.524 6.66265 6.49941 6.66501 6.47822 6.68516C6.41891 6.8034 6.02539 7.18831 6.01593 7.28423C6.01253 7.31885 6.01707 7.33039 6.0339 7.35915C6.05207 7.38998 6.34607 7.66478 6.36849 7.66885C6.39299 7.67329 6.40831 7.64719 6.42316 7.63281C6.49174 7.56631 6.61661 7.40181 6.67724 7.31942C6.77515 7.18661 6.85707 7.12975 6.78016 6.95324C6.75859 6.90377 6.59485 6.6827 6.55096 6.67021L6.55115 6.67031Z" fill="#464D33"/>
<path d="M6.8161 21.2006C6.74941 21.1815 6.62208 21.2612 6.55937 21.2957C6.42466 21.3697 6.1405 21.5477 6.11553 21.7031C6.08043 21.922 6.20246 22.1116 6.43999 22.0853C6.60288 22.0672 6.71479 21.8555 6.77637 21.7207C6.82262 21.6195 6.97719 21.2467 6.8161 21.2005V21.2006Z" fill="#464D33"/>
<path d="M18.2993 4.30592C18.2672 4.30034 18.2541 4.29731 18.2281 4.32143C18.1899 4.35691 18.02 4.70984 18.0124 4.76783C17.9912 4.93129 18.0413 4.97111 18.1743 5.0378C18.2553 5.07847 18.4739 5.17714 18.5415 5.1078C18.5944 4.98681 18.6925 4.88399 18.7565 4.77416C18.8205 4.66434 18.8599 4.62083 18.736 4.53285C18.696 4.50438 18.3307 4.31131 18.2993 4.30592Z" fill="#464D33"/>
<path d="M11.8106 23.8302C11.7434 23.8108 11.6842 23.8529 11.6457 23.9037C11.5971 23.9675 11.3885 24.3598 11.3745 24.4272C11.2801 24.8837 11.9262 24.9619 11.9896 24.5127C12.0054 24.4008 11.9292 23.956 11.8626 23.874C11.8492 23.8577 11.8311 23.8362 11.8107 23.8303L11.8106 23.8302Z" fill="#464D33"/>
<path d="M18.4136 22.8841C18.2992 22.8664 18.3011 23.0312 18.2949 23.1178C18.2816 23.3086 18.2812 23.7276 18.4838 23.8178C18.816 23.9655 19.1085 23.6379 18.8531 23.316C18.7898 23.2363 18.5586 22.9845 18.4844 22.9281C18.4628 22.9117 18.442 22.8886 18.4136 22.8841Z" fill="#464D33"/>
<path d="M10.9407 23.6403C10.9163 23.6331 10.9009 23.637 10.8787 23.6472C10.8548 23.6583 10.5821 24.0162 10.5559 24.0628C10.3648 24.404 10.6952 24.8114 11.0011 24.5268C11.1181 24.418 11.1393 24.2346 11.1241 24.0826C11.1159 24.0015 11.0148 23.662 10.9407 23.6403Z" fill="#464D33"/>
<path d="M7.42121 21.8438C7.13525 21.7854 6.56825 22.52 6.96763 22.7149C7.2429 22.8492 7.41875 22.5129 7.4826 22.2948C7.51845 22.1723 7.60037 21.8804 7.42121 21.8438Z" fill="#464D33"/>
<path d="M5.5499 19.8189C5.45804 19.7883 5.02092 19.9434 4.92453 20.0018C4.49697 20.2609 4.82606 20.7966 5.23092 20.4974C5.37196 20.3931 5.58177 20.1005 5.58225 19.9206C5.58234 19.887 5.59067 19.8325 5.5499 19.819V19.8189Z" fill="#464D33"/>
<path d="M9.19945 22.8466C9.10145 22.8265 9.04601 22.9044 8.98595 22.9657C8.90441 23.0491 8.64191 23.3511 8.61703 23.4481C8.53123 23.7828 8.92087 23.9535 9.1461 23.6366C9.27881 23.4499 9.26566 23.3131 9.26945 23.0979C9.27087 23.018 9.32904 22.8733 9.19954 22.8466H9.19945Z" fill="#464D33"/>
<path d="M16.5975 23.5469C16.4 23.4869 16.4589 23.7067 16.4604 23.7978C16.464 24.0043 16.43 24.2555 16.5647 24.4313C16.7439 24.665 17.1484 24.5015 17.0708 24.1899C17.0472 24.0954 16.674 23.5702 16.5974 23.5469H16.5975Z" fill="#464D33"/>
<path d="M3.31514 16.3971C3.10287 16.3729 2.85569 16.3858 2.75883 16.606C2.65988 16.8307 2.87896 17.0346 3.104 16.9889C3.19358 16.9707 3.68727 16.6983 3.72823 16.6294C3.81838 16.4778 3.41276 16.4083 3.31523 16.3971H3.31514Z" fill="#464D33"/>
<path d="M20.683 21.3715C20.6112 21.3533 20.5787 21.3817 20.5586 21.4464C20.4985 21.6412 20.7174 22.0259 20.8771 22.1431C21.1572 22.3488 21.5089 21.9894 21.3 21.7203C21.2136 21.6091 20.9616 21.5427 20.8292 21.4723C20.7831 21.4478 20.7224 21.3817 20.683 21.3716V21.3715Z" fill="#464D33"/>
<path d="M4.73461 9.73697C4.67066 9.72609 4.6139 9.71692 4.56935 9.77084C4.52082 9.82948 4.35869 10.2373 4.36975 10.3084C4.38375 10.3982 4.54665 10.4058 4.61721 10.4407C4.66981 10.4666 4.824 10.6024 4.86817 10.5993C4.96012 10.5928 4.98292 10.3432 5.00798 10.2662C5.05944 10.1084 5.20001 9.9938 5.01205 9.85663C4.96476 9.82211 4.79098 9.74652 4.73461 9.73697Z" fill="#464D33"/>
<path d="M10.3364 3.94542C10.2627 3.91997 9.82598 4.10708 9.79477 4.17472C9.76847 4.23166 9.78351 4.30753 9.78115 4.36873C9.81984 4.43722 9.80659 4.80339 9.83629 4.82411C9.90138 4.86961 10.2252 4.70104 10.2904 4.65147C10.3593 4.59916 10.388 4.54439 10.4002 4.4586C10.4126 4.37119 10.3913 4.07549 10.3665 3.9913C10.3602 3.96982 10.3633 3.95469 10.3364 3.94542Z" fill="#464D33"/>
<path d="M13.7025 23.9633C13.638 23.949 13.6041 23.9546 13.5674 24.0094C13.5278 24.0685 13.3834 24.4458 13.3756 24.5175C13.3602 24.6592 13.3794 24.8129 13.5171 24.887C13.8238 25.0518 13.9908 24.6871 13.9572 24.4278C13.9441 24.3271 13.8033 23.9858 13.7025 23.9633Z" fill="#464D33"/>
<path d="M23.7677 12.9337C23.672 12.9122 23.3655 12.9258 23.3074 13.0141C23.2459 13.1077 23.2567 13.5151 23.3468 13.5815C23.4269 13.6404 23.8585 13.6644 23.9116 13.5804C23.9539 13.5134 23.9267 13.2041 23.9091 13.1139C23.895 13.0417 23.8451 12.9511 23.7677 12.9337Z" fill="#464D33"/>
<path d="M10.022 23.3402C9.9072 23.2302 9.69086 23.5526 9.63647 23.6353C9.5694 23.7374 9.44671 23.9381 9.46298 24.0583C9.48796 24.2427 9.66002 24.3306 9.83228 24.2662C10.075 24.1754 10.1869 23.498 10.022 23.3402Z" fill="#464D33"/>
<path d="M7.98406 6.04324C8.15045 5.91857 8.34012 5.80695 8.4873 5.666L8.36197 5.0028C8.33198 4.973 7.83649 5.36424 7.81663 5.43264C7.78948 5.52619 7.97328 5.91838 7.98397 6.04324H7.98406Z" fill="#464D33"/>
<path d="M12.4364 24.7663C12.5915 24.9118 12.8775 24.8544 12.9317 24.641C12.9662 24.5052 12.9249 24.3365 12.8969 24.2018C12.8626 24.0368 12.8309 23.7482 12.6283 23.9593C12.4691 24.1252 12.2298 24.5723 12.4365 24.7663H12.4364Z" fill="#464D33"/>
<path d="M21.345 20.7652C21.1965 20.7499 21.2565 20.9789 21.2957 21.0624C21.3999 21.2849 21.86 21.7782 22.0752 21.4306C22.2225 21.1926 22.0135 21.0761 21.8328 20.9794C21.7583 20.9394 21.4055 20.7714 21.345 20.7652Z" fill="#464D33"/>
<path d="M22.3671 19.3847C22.3014 19.3716 22.2475 19.392 22.2473 19.4658C22.2469 19.5806 22.5618 19.9934 22.6646 20.072C22.9649 20.3018 23.2997 19.9265 23.1006 19.6928C23.0256 19.6049 22.7254 19.5337 22.6036 19.4898C22.5371 19.4658 22.4185 19.3948 22.3672 19.3847H22.3671Z" fill="#464D33"/>
<path d="M5.13014 8.61953C5.11311 8.62965 4.95154 8.921 4.93433 8.963C4.85676 9.15228 4.83737 9.2308 5.01445 9.36238C5.0784 9.40996 5.27279 9.53378 5.33295 9.45603C5.38129 9.39359 5.43899 9.23297 5.4826 9.15172C5.54087 9.04322 5.66687 8.97889 5.55042 8.84523C5.5054 8.79358 5.18359 8.58774 5.13014 8.61943V8.61953Z" fill="#464D33"/>
<path d="M3.74601 12.8731C3.75481 12.9924 3.62928 13.4319 3.68746 13.5085C3.70893 13.5367 3.77676 13.5501 3.81214 13.5541L4.44327 13.5703C4.58866 13.0802 4.37469 13.1788 4.05458 13.0467L3.74592 12.8731H3.74601Z" fill="#464D33"/>
<path d="M23.5023 11.7045C23.4079 11.6872 23.1833 11.7197 23.1603 11.8274C23.1505 11.8734 23.2189 12.3602 23.2373 12.4235C23.2776 12.5617 23.4106 12.469 23.5066 12.4566C23.6773 12.4345 23.8193 12.5097 23.7765 12.2436C23.7647 12.1703 23.7073 11.9555 23.6823 11.884C23.6527 11.7992 23.5956 11.7217 23.5025 11.7045H23.5023Z" fill="#464D33"/>
<path d="M7.39716 5.77838C7.37039 5.7588 7.13807 5.97069 7.10364 6.00493C7.03903 6.06907 6.94424 6.15288 6.92845 6.24662C6.90281 6.39835 7.11773 6.63966 7.17978 6.7808C7.23891 6.68355 7.57122 6.45624 7.58654 6.37366C7.61208 6.23574 7.4193 5.93039 7.39716 5.77847V5.77838Z" fill="#464D33"/>
<path d="M3.63619 17.3435C3.44398 17.3253 3.21005 17.3295 3.08386 17.4988C3.00534 17.6041 3.00998 17.6782 3.07913 17.7871C3.26255 18.0758 3.55919 17.8827 3.75482 17.7156C4.01438 17.494 3.99613 17.3777 3.63619 17.3435Z" fill="#464D33"/>
<path d="M21.7611 20.1613C21.7366 20.1858 21.7289 20.2567 21.7472 20.2888L22.2493 20.8654C22.502 20.9773 22.7402 20.7532 22.6249 20.4896C22.5608 20.343 22.2635 20.3042 22.111 20.2469C22.0241 20.2143 21.8443 20.0782 21.7611 20.1613Z" fill="#464D33"/>
<path d="M23.9553 16.4922C23.8719 16.4873 23.7665 16.4812 23.8035 16.6054C23.8135 16.6391 24.2302 17.0546 24.2858 17.0888C24.6382 17.3059 24.8505 16.8606 24.623 16.6569C24.5145 16.5598 24.1082 16.501 23.9553 16.4922Z" fill="#464D33"/>
<path d="M23.2386 10.3213C23.1405 10.2891 22.9068 10.4771 22.8925 10.5757C22.888 10.6069 22.8919 10.6337 22.8963 10.6643C22.9095 10.757 22.9969 11.087 23.0337 11.1702C23.0503 11.2074 23.0662 11.2392 23.1103 11.2462C23.1656 11.2549 23.4298 11.1865 23.4607 11.1434C23.5146 11.0684 23.402 10.745 23.3697 10.645C23.3508 10.5862 23.2804 10.3351 23.2385 10.3214L23.2386 10.3213Z" fill="#464D33"/>
<path d="M24.7308 14.8841C24.6535 14.8779 24.4775 14.8609 24.4169 14.8993C24.3574 14.9369 24.3527 15.0399 24.3856 15.0971C24.4214 15.1594 24.8289 15.4151 24.911 15.4416C25.2374 15.5471 25.4185 15.1455 25.1496 14.9761C25.0615 14.9206 24.8397 14.8927 24.7308 14.8841Z" fill="#464D33"/>
<path d="M4.84904 19.0254C4.60906 18.9549 3.91085 19.2165 4.14327 19.5798C4.3546 19.9102 4.95896 19.4004 4.89975 19.0884C4.89407 19.0584 4.87979 19.0344 4.84904 19.0253V19.0254Z" fill="#464D33"/>
<path d="M24.4659 15.6786C23.9372 15.6325 24.2606 16.0288 24.5061 16.1681C24.6556 16.2528 24.9914 16.3873 25.0441 16.1321C25.1096 15.8147 24.7114 15.6999 24.4659 15.6786Z" fill="#464D33"/>
<path d="M20.4203 5.81915C20.3474 5.80486 20.2618 5.96927 20.2239 6.01449C20.135 6.12043 20.0112 6.14512 20.1199 6.28957C20.3478 6.59236 20.7172 6.73095 20.8779 6.28749L20.4203 5.81915Z" fill="#464D33"/>
<path d="M21.3269 6.80255C21.2369 6.77815 21.0774 6.99117 21.0024 7.03895C20.9941 7.08085 21.3643 7.52885 21.4178 7.60235C21.4865 7.67755 21.8153 7.54796 21.8307 7.48695C21.8347 7.47134 21.832 7.45753 21.8232 7.44428C21.7431 7.35839 21.3964 6.82147 21.3269 6.80265V6.80255Z" fill="#464D33"/>
<path d="M8.9117 5.36122C8.95644 5.39934 9.25564 5.19397 9.29736 5.13391C9.42506 4.94992 9.33009 4.87879 9.30956 4.70795C9.29764 4.60891 9.31505 4.49795 9.30795 4.39739C9.28866 4.37602 8.83261 4.64788 8.81928 4.69489L8.9117 5.36131V5.36122Z" fill="#464D33"/>
<path d="M2.89838 14.638C2.74466 14.6235 2.50808 14.6507 2.44234 14.814C2.24435 15.3058 3.35016 15.185 3.26919 14.8163C3.24062 14.6863 3.01009 14.6484 2.89847 14.6379L2.89838 14.638Z" fill="#464D33"/>
<path d="M24.58 14.1078C24.4427 14.0931 24.4297 14.1565 24.4677 14.2769C24.5434 14.5171 24.9327 14.7633 25.1755 14.6361C25.3249 14.558 25.3104 14.3423 25.18 14.2458C25.0495 14.1493 24.7509 14.126 24.58 14.1078Z" fill="#464D33"/>
<path d="M4.50237 12.7406C4.51135 12.6198 4.58277 12.4017 4.52233 12.295C4.47153 12.2053 4.29341 12.2059 4.20156 12.1617C4.11377 12.1194 4.01142 11.9697 3.9051 12.0393C3.8229 12.0931 3.81202 12.3828 3.82952 12.477C3.90236 12.5047 3.97964 12.5103 4.05361 12.5367C4.213 12.5935 4.33844 12.7206 4.50237 12.7406Z" fill="#464D33"/>
<path d="M2.67384 15.6226C2.58029 15.7191 2.60346 15.9038 2.71754 15.9728C2.89008 16.0773 3.21729 15.9951 3.3676 15.8719C3.46957 15.7884 3.55187 15.7073 3.39919 15.6318C3.22135 15.5439 2.82737 15.4643 2.67384 15.6227V15.6226Z" fill="#464D33"/>
<path d="M22.4248 9.28377C22.3476 9.37505 22.4727 9.43569 22.4935 9.48213C22.5432 9.593 22.5272 9.63878 22.6069 9.7662C22.6247 9.79458 22.6161 9.82986 22.655 9.86553C22.7429 9.94641 23.0462 9.91878 23.063 9.79761C23.0758 9.70557 22.8256 9.25265 22.7788 9.13535C22.742 9.1117 22.4561 9.24697 22.4249 9.28377H22.4248Z" fill="#464D33"/>
<path d="M23.2934 18.1375C23.1398 18.1211 23.161 18.1781 23.21 18.2968C23.3002 18.515 23.6899 18.7987 23.9202 18.6594C24.0852 18.5596 24.0074 18.3684 23.8745 18.2756C23.749 18.188 23.451 18.1546 23.2933 18.1376L23.2934 18.1375Z" fill="#464D33"/>
<path d="M22.1784 8.01355C22.1344 8.00182 22.0669 8.0407 22.0243 8.06057C21.9816 8.08043 21.8161 8.17304 21.8127 8.20974C21.8062 8.28012 22.0722 8.68905 22.1437 8.73077C22.2101 8.76946 22.2676 8.73616 22.3316 8.70845C22.3886 8.68385 22.5179 8.61508 22.5141 8.55161C22.4686 8.47054 22.2337 8.02831 22.1784 8.01355Z" fill="#464D33"/>
<path d="M5.41078 8.18089C5.60262 8.19224 5.68416 8.39392 5.83447 8.48293L6.10889 8.07977C6.10416 8.05205 5.71481 7.74273 5.68756 7.74746C5.63989 7.79485 5.38637 8.15261 5.41087 8.18089H5.41078Z" fill="#464D33"/>
<path d="M14.3442 6.16234C11.2964 5.98006 8.50595 7.63537 7.35038 10.4709C5.24215 15.6443 9.79659 20.9816 15.233 19.8293C19.8986 18.8403 22.1076 13.3817 19.5623 9.36314C18.4492 7.60576 16.4535 6.28853 14.3441 6.16234H14.3442ZM13.2079 7.346C13.0429 6.90935 13.3202 6.79603 13.7069 6.83784C13.8912 6.8578 13.8346 7.18954 13.7929 7.3216L13.2079 7.346ZM14.5579 6.91352C14.6995 6.94066 14.7899 7.00366 14.8085 7.15511C14.8384 7.39831 14.682 7.41846 14.4814 7.40626C14.1679 7.38715 14.2626 7.21546 14.2266 6.98011C14.2247 6.96024 14.2651 6.91352 14.2741 6.91352H14.5579ZM12.7463 6.93745C12.7724 6.96185 12.8201 7.16353 12.8248 7.20865C12.8387 7.34534 12.8266 7.37306 12.6987 7.41912C12.6184 7.44797 12.3707 7.50672 12.286 7.51845C12.1918 7.5315 12.1747 7.49139 12.1449 7.41562C12.1151 7.33985 12.0623 7.11519 12.1064 7.05389C12.1407 7.00622 12.5727 6.91938 12.6499 6.91484C12.6812 6.91304 12.7229 6.9156 12.7463 6.93754V6.93745ZM15.4236 7.10734C15.4869 7.11756 15.7967 7.25406 15.8137 7.30485C15.7875 7.69543 15.7302 7.85256 15.3445 7.62156C15.3061 7.59857 15.1853 7.52431 15.1754 7.48638C15.1664 7.45166 15.1926 7.38677 15.1935 7.33929C15.1949 7.26919 15.1592 7.23258 15.2027 7.16126C15.2504 7.08322 15.3414 7.0941 15.4236 7.10734H15.4236ZM11.5832 7.21943C11.7175 7.24658 11.771 7.52422 11.8034 7.63896C11.7427 7.68247 11.2608 7.90297 11.2302 7.89588C11.2068 7.89058 11.0989 7.58656 11.0905 7.54257C11.0721 7.44731 11.1029 7.40437 11.1782 7.35527C11.2481 7.30977 11.5091 7.20439 11.5833 7.21934L11.5832 7.21943ZM16.3882 7.52176C16.46 7.53207 16.8024 7.72712 16.8158 7.79779C16.8292 7.86845 16.6392 8.14116 16.578 8.15895C16.4892 8.18477 16.2499 8.0232 16.1775 7.9602C16.1652 7.92199 16.2979 7.56461 16.3352 7.53623C16.3554 7.52081 16.3626 7.51807 16.3882 7.52185V7.52176ZM10.7796 8.15838C10.6789 8.18572 10.499 8.39657 10.3997 8.36781C10.359 8.35599 10.2368 8.13237 10.2251 8.08706C10.1665 7.86183 10.4274 7.74074 10.5942 7.67018C10.6185 7.77584 10.8381 8.05811 10.7796 8.15829V8.15838ZM17.2601 8.06946C17.3438 8.13114 17.9027 8.56608 17.914 8.61064C17.9286 8.66806 17.6426 8.95581 17.5801 8.9717C17.5521 8.9788 17.5259 8.98145 17.4995 8.96669L16.9345 8.47073C16.9076 8.36393 17.1933 8.17522 17.2349 8.07589L17.2601 8.06956V8.06946ZM9.69178 8.3156C9.71297 8.3208 9.90765 8.55511 9.92884 8.59124C10.0634 8.82054 9.92591 8.78847 9.79054 8.91911C9.73861 8.96915 9.55727 9.21803 9.49143 9.20072C9.43543 9.12201 9.11665 8.92696 9.14011 8.83766C9.14219 8.82981 9.22524 8.72964 9.24142 8.71053C9.29534 8.64677 9.59435 8.34397 9.6495 8.32269C9.66492 8.31673 9.67296 8.31087 9.69178 8.3155V8.3156ZM18.2809 9.03574C18.3475 9.05542 18.7092 9.63406 18.7844 9.72619C18.7904 9.75154 18.7686 9.75551 18.7556 9.76781C18.7251 9.79647 18.4037 9.99484 18.3786 9.99749C18.3398 10.0015 18.3134 9.98254 18.2866 9.95795C18.2597 9.93335 17.9091 9.45234 17.8957 9.42197C17.8663 9.35519 17.8677 9.30704 17.9175 9.2517C17.9344 9.23297 18.1816 9.0505 18.2005 9.04265C18.2298 9.03045 18.2495 9.02666 18.2808 9.03593L18.2809 9.03574ZM8.22954 10.2242C8.15273 10.1469 8.68104 9.43881 8.73222 9.3165C8.80203 9.38773 9.11703 9.53653 9.15487 9.5931C9.18816 9.64295 9.16262 9.6631 9.14087 9.70727C9.11428 9.76147 8.80685 10.2204 8.77781 10.2339L8.22945 10.2242H8.22954ZM19.039 10.2463C19.0637 10.251 19.0986 10.3012 19.1117 10.3247C19.1503 10.3937 19.2977 10.7542 19.3121 10.8249C19.3286 10.9061 19.312 10.9132 19.2408 10.9342C19.191 10.9488 18.8207 11.0237 18.7991 11.017C18.7324 10.9219 18.575 10.597 18.6047 10.4888C18.6365 10.3729 18.8098 10.3703 18.9 10.3286C18.9411 10.3096 19.0022 10.2392 19.0389 10.2462L19.039 10.2463ZM7.77558 11.4161C7.74777 11.3873 7.97745 10.7008 8.01046 10.677C8.07289 10.6319 8.21743 10.6988 8.29803 10.7139C8.42507 10.7378 8.5541 10.6806 8.52827 10.8914C8.4613 10.9624 8.41192 11.2301 8.36141 11.2738C8.31089 11.3174 8.20627 11.2967 8.1339 11.3111C8.0097 11.336 7.89855 11.3914 7.77549 11.416L7.77558 11.4161ZM19.0749 12.1112C19.0604 12.0977 19.0375 12.0337 19.0335 12.0109C19.0162 11.9154 18.9767 11.6817 18.9749 11.5949C18.9731 11.5081 19.0088 11.4706 19.0885 11.4441C19.1765 11.415 19.4045 11.3741 19.4679 11.4441C19.5004 11.4799 19.5774 11.7921 19.5941 11.8664C19.6291 12.022 19.6159 12.0969 19.4391 12.1164C19.3775 12.1232 19.1077 12.142 19.0749 12.1113V12.1112ZM8.1795 11.8347C8.20438 11.843 8.20637 11.8568 8.21062 11.8796C8.22699 11.9675 8.17619 12.4903 8.13305 12.5589C8.08084 12.6419 7.71589 12.6002 7.65157 12.5523C7.56605 12.4886 7.62234 11.9956 7.68042 11.9172C7.71324 11.8729 7.77227 11.8599 7.82496 11.8536C7.86573 11.8488 8.16266 11.8292 8.1795 11.8348V11.8347ZM19.4334 12.6137C19.5048 12.6181 19.6614 12.6174 19.6755 12.6932C19.6709 12.7967 19.6575 13.4816 19.62 13.5079C19.5089 13.5037 19.2048 13.4998 19.1256 13.4322C19.0199 13.3419 19.1079 13.2382 19.1093 13.1282C19.1106 13.0366 19.0807 12.9507 19.0893 12.8449C19.1092 12.5989 19.2131 12.5999 19.4333 12.6137H19.4334ZM7.83612 13.1813C7.88985 13.1826 8.01916 13.1885 8.06466 13.1987C8.21819 13.2325 8.18186 13.5016 8.19322 13.6188C8.20239 13.7131 8.2863 13.7853 8.14838 13.8607C8.11801 13.8773 7.75004 13.9919 7.7281 13.9901C7.70955 13.9885 7.70199 13.9847 7.69016 13.9705C7.6737 13.9507 7.59377 13.5245 7.58857 13.4667C7.56549 13.2114 7.58923 13.1755 7.83612 13.1814V13.1813ZM19.0934 13.9369C19.1197 13.9434 19.1472 13.9735 19.1821 13.9812C19.2744 14.0019 19.4526 13.9787 19.5004 14.0792C19.5536 14.191 19.4882 14.4589 19.4329 14.5696C19.3096 14.8165 19.2089 14.6818 19.0394 14.597C18.9957 14.5751 18.8544 14.5465 18.8454 14.5076C18.9158 14.3713 18.924 14.0946 18.99 13.9754C19.0168 13.9269 19.0394 13.9236 19.0934 13.937V13.9369ZM8.37824 14.3892C8.38051 14.4938 8.59836 14.9335 8.58162 14.9926C8.55911 15.0718 8.19113 15.2386 8.1078 15.2944L7.81522 14.5694C7.82969 14.5237 8.29557 14.3434 8.37824 14.3892ZM18.6793 15.0316C18.7099 15.0346 19.1168 15.3159 19.1243 15.3459C19.0804 15.4626 18.9445 15.8381 18.8104 15.8592C18.7451 15.8695 18.4538 15.5801 18.4455 15.5301C18.439 15.4915 18.4496 15.4667 18.4605 15.4322C18.4826 15.3627 18.5985 15.1321 18.6388 15.0621C18.6502 15.0423 18.6506 15.0289 18.6792 15.0316H18.6793ZM8.70214 16.2972C8.67319 16.3043 8.67196 16.2928 8.65635 16.2771C8.61019 16.2309 8.38524 15.9308 8.37049 15.8819C8.34873 15.8099 8.35819 15.7655 8.41192 15.7136C8.43472 15.6915 8.73326 15.5032 8.76012 15.4935C8.862 15.4567 8.96795 15.638 8.98185 15.725C9.0178 15.9498 8.78301 16.1095 8.70214 16.2973V16.2972ZM18.2068 15.9391L18.5216 16.3821C18.5216 16.4057 18.2713 16.7297 18.238 16.761C18.2231 16.775 18.215 16.79 18.1904 16.7899C18.1618 16.7897 18.0241 16.6482 18.0023 16.6177C17.884 16.4521 17.8935 16.3289 17.995 16.1588C18.0219 16.1138 18.1599 15.9248 18.2067 15.9391H18.2068ZM9.33299 16.2811C9.4185 16.2881 9.83604 16.8409 9.94842 16.9164C9.95911 16.9448 9.94605 16.9666 9.9365 16.992C9.92543 17.021 9.74958 17.2879 9.72083 17.3251C9.66596 17.3961 9.66142 17.4137 9.58234 17.3566C9.50326 17.2994 9.3398 17.1382 9.26961 17.0641C9.23366 17.0261 8.99415 16.7406 8.98838 16.7191C8.98308 16.6993 8.98838 16.6926 8.99547 16.6765C9.01051 16.6421 9.1962 16.4049 9.23281 16.3642C9.25391 16.3407 9.30272 16.2787 9.33299 16.2811ZM17.5354 16.7348C17.5676 16.8511 17.81 17.1276 17.7803 17.2296C17.7619 17.2929 17.2839 17.6378 17.2063 17.7156C17.178 17.7135 16.9889 17.2668 16.9725 17.1999C16.9844 17.154 17.2349 16.9802 17.2919 16.9314C17.337 16.8928 17.484 16.7051 17.5353 16.7348H17.5354ZM10.8544 17.5506C10.9261 17.6246 10.8211 17.9876 10.7794 18.081C10.7508 18.1451 10.7475 18.1649 10.6696 18.1429C10.638 18.134 10.2022 17.8706 10.1606 17.8378C10.1062 17.7949 10.0711 17.7674 10.0869 17.6921C10.1027 17.6168 10.3801 17.3752 10.4612 17.3647C10.5069 17.3587 10.5431 17.3794 10.5827 17.397C10.6124 17.4101 10.8437 17.5393 10.8544 17.5506ZM16.5418 17.5095C16.5659 17.5175 16.5654 17.5367 16.5742 17.554C16.601 17.607 16.6854 17.8632 16.6973 17.9234C16.7145 18.0098 16.6988 18.0515 16.6241 18.0987C16.5866 18.1224 16.2287 18.2885 16.2068 18.2823C16.1774 18.2739 16.0738 17.9947 16.0666 17.9483C16.0528 17.8599 16.0636 17.7812 16.1281 17.7162C16.1759 17.6681 16.4881 17.4919 16.5418 17.5096V17.5095ZM11.9723 18.0598C11.9943 18.0952 11.9152 18.5786 11.882 18.6159C11.8426 18.6602 11.8018 18.643 11.7519 18.6303C11.6517 18.6048 11.3286 18.4757 11.2378 18.4255C11.147 18.3753 11.1508 18.3684 11.18 18.2734C11.2089 18.1796 11.3282 17.9629 11.4258 17.9327C11.6033 17.8781 11.8143 17.9898 11.9723 18.0598ZM14.7566 18.7473C14.7388 18.69 14.7566 18.4 14.7566 18.3122C14.7566 18.3001 14.8071 18.2399 14.8219 18.2262C14.927 18.1291 15.0957 18.1485 15.225 18.0995L15.5132 17.9812C15.4671 18.0992 15.6577 18.4844 15.6179 18.549C15.5979 18.5818 15.1379 18.7145 15.0633 18.7325C15.0073 18.7461 14.7785 18.8181 14.7566 18.7474V18.7473ZM12.2593 18.7566L12.4328 18.3532C12.5493 18.171 12.8189 18.2303 12.9978 18.2737C13.0738 18.2921 13.1696 18.3086 13.1967 18.3963C13.2184 18.4665 13.1798 18.842 13.0975 18.8666C13.0255 18.8881 12.2876 18.7881 12.2593 18.7566ZM14.3214 18.2932C14.3564 18.4117 14.2953 18.7027 14.3214 18.8419C14.3214 18.8663 14.1907 18.8835 14.1582 18.8867C14.0695 18.8954 13.9465 18.9059 13.8587 18.9089C13.8005 18.9109 13.5402 18.9245 13.5291 18.8782C13.5245 18.859 13.5977 18.5336 13.6124 18.4924C13.7086 18.2232 13.872 18.3171 14.1035 18.3023C14.1542 18.2991 14.3048 18.2372 14.3213 18.2931L14.3214 18.2932Z" fill="#FFFCE3"/>
<path d="M9.33315 16.2811C9.30288 16.2787 9.25407 16.3406 9.23297 16.3642C9.19636 16.4049 9.01058 16.6421 8.99563 16.6765C8.98863 16.6926 8.98324 16.6992 8.98854 16.7191C8.99431 16.7406 9.23382 17.0261 9.26977 17.0641C9.33996 17.1382 9.50531 17.3009 9.5825 17.3566C9.65969 17.4123 9.66612 17.396 9.72098 17.3251C9.74974 17.2879 9.92559 17.021 9.93666 16.992C9.94631 16.9666 9.95936 16.9449 9.94858 16.9164C9.8362 16.8409 9.41866 16.2881 9.33315 16.2811Z" fill="#464D33"/>
<path d="M19.4336 12.6137C19.2133 12.5999 19.1095 12.5988 19.0896 12.8449C19.081 12.9507 19.111 13.0366 19.1096 13.1282C19.1081 13.2383 19.0201 13.3419 19.1259 13.4322C19.205 13.4999 19.5092 13.5038 19.6203 13.5079C19.6578 13.4816 19.6711 12.7967 19.6758 12.6931C19.6617 12.6173 19.5051 12.6181 19.4337 12.6137H19.4336Z" fill="#464D33"/>
<path d="M8.22994 10.2242L8.77831 10.2339C8.80735 10.2204 9.11469 9.76138 9.14136 9.70727C9.16312 9.663 9.18866 9.64285 9.15536 9.5931C9.11752 9.53653 8.80252 9.38773 8.73271 9.3165C8.68154 9.43891 8.15332 10.1469 8.23004 10.2242H8.22994Z" fill="#464D33"/>
<path d="M18.281 9.03574C18.2497 9.02647 18.2299 9.03026 18.2007 9.04246C18.1818 9.05031 17.9346 9.23288 17.9178 9.25151C17.8678 9.30685 17.8665 9.355 17.8959 9.42178C17.9093 9.45215 18.2605 9.93373 18.2868 9.95776C18.3131 9.98178 18.3399 10.0014 18.3788 9.9973C18.4039 9.99474 18.7253 9.79628 18.7558 9.76762C18.7688 9.75532 18.7906 9.75135 18.7846 9.726C18.7094 9.63386 18.3477 9.05523 18.2811 9.03555L18.281 9.03574Z" fill="#464D33"/>
<path d="M14.7567 18.7473C14.7786 18.8181 15.0075 18.746 15.0634 18.7324C15.138 18.7145 15.5979 18.5817 15.618 18.5489C15.6578 18.4843 15.4672 18.0991 15.5133 17.9811L15.2251 18.0994C15.0958 18.1484 14.9271 18.1289 14.822 18.2261C14.8072 18.2398 14.7567 18.3 14.7567 18.3121C14.7567 18.3999 14.7389 18.6899 14.7567 18.7472V18.7473Z" fill="#464D33"/>
<path d="M12.2593 18.7566C12.2877 18.7881 13.0255 18.8881 13.0975 18.8666C13.1797 18.842 13.2184 18.4665 13.1967 18.3963C13.1697 18.3086 13.0738 18.2921 12.9978 18.2737C12.8189 18.2303 12.5493 18.1709 12.4328 18.3532L12.2593 18.7566Z" fill="#464D33"/>
<path d="M17.2601 8.06946L17.2348 8.0758C17.1933 8.17512 16.9075 8.36384 16.9345 8.47064L17.4995 8.9666C17.5259 8.98135 17.5521 8.9788 17.5801 8.97161C17.6426 8.95572 17.9286 8.66796 17.914 8.61054C17.9027 8.56599 17.3438 8.13104 17.2601 8.06937V8.06946Z" fill="#464D33"/>
<path d="M8.37822 14.3892C8.29564 14.3433 7.82976 14.5237 7.8152 14.5694L8.10778 15.2944C8.19111 15.2386 8.55918 15.0718 8.5816 14.9926C8.59834 14.9335 8.38049 14.4938 8.37822 14.3892Z" fill="#464D33"/>
<path d="M14.3218 18.2932C14.3052 18.2372 14.1546 18.2992 14.1039 18.3024C13.8725 18.3171 13.7091 18.2233 13.6129 18.4925C13.5981 18.5337 13.5249 18.8592 13.5296 18.8783C13.5407 18.9246 13.8009 18.9109 13.8591 18.909C13.9468 18.9059 14.07 18.8955 14.1586 18.8868C14.1911 18.8836 14.3219 18.8664 14.3219 18.842C14.2958 18.7028 14.3569 18.4118 14.3219 18.2933L14.3218 18.2932Z" fill="#464D33"/>
<path d="M17.5357 16.7348C17.4844 16.7051 17.3374 16.8928 17.2923 16.9314C17.2352 16.9802 16.9848 17.154 16.973 17.1999C16.9894 17.2668 17.1785 17.7135 17.2067 17.7156C17.2844 17.6378 17.7623 17.2928 17.7807 17.2296C17.8103 17.1276 17.5681 16.8511 17.5358 16.7348H17.5357Z" fill="#464D33"/>
<path d="M11.9722 18.0598C11.8143 17.9898 11.6032 17.8781 11.4258 17.9327C11.328 17.9628 11.2088 18.1795 11.18 18.2734C11.1508 18.3684 11.1511 18.3774 11.2378 18.4255C11.3245 18.4735 11.6516 18.6048 11.7518 18.6303C11.8018 18.643 11.8425 18.6602 11.882 18.6159C11.9152 18.5786 11.9944 18.0952 11.9722 18.0598Z" fill="#464D33"/>
<path d="M7.83631 13.1813C7.58942 13.1754 7.56568 13.2113 7.58876 13.4666C7.59396 13.5244 7.6739 13.9506 7.69036 13.9704C7.70218 13.9846 7.70965 13.9885 7.72829 13.99C7.75023 13.9919 8.11821 13.8772 8.14857 13.8606C8.28649 13.7852 8.20259 13.713 8.19341 13.6187C8.18206 13.5015 8.21838 13.2324 8.06486 13.1986C8.01936 13.1885 7.89004 13.1825 7.83631 13.1812V13.1813Z" fill="#464D33"/>
<path d="M9.69221 8.31559C9.67338 8.31096 9.66534 8.31682 9.64992 8.32278C9.59468 8.34397 9.29576 8.64686 9.24184 8.71062C9.22567 8.72973 9.14261 8.8299 9.14053 8.83776C9.11707 8.92705 9.43586 9.12201 9.49186 9.20081C9.5576 9.21812 9.73903 8.96924 9.79097 8.9192C9.92643 8.78857 10.0638 8.82063 9.92926 8.59134C9.90807 8.5552 9.7134 8.32089 9.69221 8.31569V8.31559Z" fill="#464D33"/>
<path d="M8.1796 11.8347C8.16277 11.8291 7.86583 11.8486 7.82506 11.8535C7.77247 11.8599 7.71335 11.8728 7.68052 11.9171C7.62244 11.9955 7.56616 12.4885 7.65167 12.5522C7.71599 12.6001 8.08094 12.6418 8.13316 12.5588C8.17629 12.4902 8.22709 11.9675 8.21073 11.8795C8.20647 11.8566 8.20448 11.8428 8.1796 11.8346V11.8347Z" fill="#464D33"/>
<path d="M10.8545 17.5506C10.8436 17.5394 10.6124 17.4102 10.5827 17.397C10.5432 17.3795 10.507 17.3588 10.4613 17.3647C10.3802 17.3752 10.1034 17.614 10.087 17.6921C10.0705 17.7702 10.1063 17.7949 10.1607 17.8378C10.2023 17.8705 10.6381 18.1339 10.6697 18.1429C10.7476 18.1649 10.7508 18.1451 10.7795 18.081C10.8211 17.9876 10.9262 17.6246 10.8545 17.5506Z" fill="#464D33"/>
<path d="M19.0937 13.9369C19.0398 13.9235 19.0172 13.9268 18.9903 13.9753C18.9244 14.0945 18.9162 14.3712 18.8458 14.5075C18.8548 14.5464 18.9961 14.575 19.0398 14.5969C19.2093 14.6817 19.31 14.8164 19.4333 14.5695C19.4887 14.4588 19.554 14.1909 19.5008 14.0791C19.453 13.9786 19.2747 14.0018 19.1825 13.9811C19.1475 13.9734 19.1201 13.9433 19.0937 13.9368V13.9369Z" fill="#464D33"/>
<path d="M19.0751 12.1112C19.1079 12.1419 19.3776 12.1231 19.4393 12.1163C19.6161 12.0969 19.6293 12.0219 19.5943 11.8663C19.5777 11.792 19.5006 11.4798 19.4681 11.444C19.4047 11.374 19.1767 11.4149 19.0887 11.444C19.0089 11.4705 18.9731 11.504 18.9751 11.5948C18.9771 11.6856 19.0164 11.9153 19.0337 12.0108C19.0378 12.0336 19.0606 12.0976 19.0751 12.1111V12.1112Z" fill="#464D33"/>
<path d="M19.0393 10.2463C19.0025 10.2393 18.9415 10.3096 18.9004 10.3287C18.8101 10.3704 18.6369 10.373 18.6051 10.4889C18.5754 10.5971 18.7328 10.9219 18.7995 11.0171C18.821 11.0238 19.1913 10.949 19.2412 10.9343C19.3124 10.9133 19.329 10.9062 19.3125 10.825C19.2981 10.7543 19.1507 10.3937 19.1121 10.3248C19.099 10.3013 19.0642 10.2511 19.0394 10.2464L19.0393 10.2463Z" fill="#464D33"/>
<path d="M7.77565 11.4161C7.89871 11.3914 8.00986 11.3361 8.13407 11.3112C8.20643 11.2967 8.30897 11.3194 8.36157 11.2739C8.41416 11.2284 8.46146 10.9624 8.52843 10.8915C8.55416 10.6806 8.42523 10.7378 8.29819 10.714C8.2175 10.6989 8.07305 10.6321 8.01062 10.6771C7.97761 10.7009 7.74793 11.3874 7.77574 11.4162L7.77565 11.4161Z" fill="#464D33"/>
<path d="M12.7467 6.93745C12.7232 6.9155 12.6815 6.91295 12.6503 6.91474C12.573 6.91928 12.1411 7.00612 12.1067 7.0538C12.0626 7.11519 12.1163 7.34203 12.1452 7.41553C12.1742 7.48903 12.192 7.53141 12.2864 7.51835C12.371 7.50662 12.6188 7.44788 12.699 7.41903C12.827 7.37296 12.839 7.34524 12.8251 7.20855C12.8204 7.16343 12.7728 6.96185 12.7467 6.93735V6.93745Z" fill="#464D33"/>
<path d="M18.6794 15.0316C18.6508 15.0288 18.6504 15.0422 18.6391 15.0621C18.5988 15.1321 18.4829 15.3627 18.4607 15.4322C18.4498 15.4667 18.4392 15.4915 18.4457 15.5301C18.454 15.58 18.7453 15.8694 18.8106 15.8592C18.9447 15.8381 19.0805 15.4627 19.1245 15.3459C19.1169 15.3159 18.7101 15.0346 18.6795 15.0316H18.6794Z" fill="#464D33"/>
<path d="M16.5418 17.5095C16.4881 17.4917 16.1759 17.668 16.1281 17.7161C16.0636 17.7811 16.0528 17.8599 16.0666 17.9482C16.0739 17.9946 16.1774 18.2738 16.2068 18.2822C16.2287 18.2884 16.5866 18.1223 16.6241 18.0986C16.6988 18.0514 16.7145 18.0097 16.6973 17.9233C16.6853 17.8632 16.601 17.6069 16.5742 17.5539C16.5654 17.5366 16.5658 17.5175 16.5418 17.5095Z" fill="#464D33"/>
<path d="M11.5836 7.21943C11.5095 7.20449 11.2483 7.30996 11.1785 7.35536C11.1031 7.40446 11.0725 7.44731 11.0908 7.54266C11.0992 7.58655 11.2071 7.89058 11.2305 7.89597C11.2612 7.90297 11.743 7.68257 11.8037 7.63905C11.7713 7.52431 11.7178 7.24668 11.5835 7.21953L11.5836 7.21943Z" fill="#464D33"/>
<path d="M8.70241 16.2972C8.78329 16.1094 9.01807 15.9497 8.98213 15.7249C8.96822 15.6379 8.86237 15.4567 8.76039 15.4934C8.73362 15.5031 8.43499 15.6915 8.41219 15.7135C8.35837 15.7653 8.34891 15.8098 8.37076 15.8818C8.38552 15.9307 8.61046 16.2309 8.65662 16.2771C8.67214 16.2927 8.67337 16.3042 8.70241 16.2971V16.2972Z" fill="#464D33"/>
<path d="M13.2079 7.346L13.7929 7.32159C13.8345 7.18963 13.8912 6.8578 13.7068 6.83784C13.3202 6.79603 13.0429 6.90935 13.2079 7.346Z" fill="#464D33"/>
<path d="M18.2071 15.9391C18.1602 15.9248 18.0222 16.1137 17.9954 16.1588C17.8938 16.329 17.8843 16.4522 18.0026 16.6177C18.0245 16.6482 18.1621 16.7897 18.1907 16.7898C18.2154 16.79 18.2234 16.775 18.2384 16.761C18.2717 16.7297 18.5219 16.4057 18.522 16.3821L18.2072 15.9391H18.2071Z" fill="#464D33"/>
<path d="M15.4239 7.10734C15.3417 7.0941 15.2507 7.08322 15.203 7.16126C15.1595 7.23249 15.1952 7.26919 15.1938 7.33929C15.1929 7.38677 15.1667 7.45157 15.1757 7.48638C15.1857 7.52431 15.3064 7.59857 15.3448 7.62156C15.7305 7.85256 15.7878 7.69543 15.814 7.30485C15.7969 7.25406 15.4872 7.11756 15.424 7.10734H15.4239Z" fill="#464D33"/>
<path d="M16.3886 7.52176C16.3629 7.51807 16.3558 7.52072 16.3355 7.53614C16.2983 7.56452 16.1655 7.92189 16.1778 7.96011C16.2503 8.02311 16.4895 8.18468 16.5784 8.15885C16.6396 8.14107 16.8302 7.87129 16.8162 7.79769C16.8022 7.7241 16.4604 7.53207 16.3886 7.52166V7.52176Z" fill="#464D33"/>
<path d="M10.7797 8.15838C10.8382 8.0582 10.6186 7.77584 10.5943 7.67027C10.4273 7.74084 10.1665 7.86192 10.2252 8.08715C10.237 8.13246 10.3591 8.35608 10.3998 8.3679C10.499 8.39666 10.679 8.18571 10.7797 8.15847V8.15838Z" fill="#464D33"/>
<path d="M14.5582 6.91351H14.2744C14.2655 6.91351 14.225 6.96015 14.227 6.98011C14.2629 7.21546 14.1682 7.38715 14.4817 7.40626C14.6823 7.41846 14.8388 7.39831 14.8088 7.15511C14.7902 7.00366 14.6998 6.94066 14.5582 6.91351Z" fill="#464D33"/>
</g>
<defs>
<clipPath id="clip0_217_736">
<rect width="28" height="28" fill="white" transform="matrix(-1 0 0 1 28 0.5)"/>
</clipPath>
</defs>
</svg>
